<svg width="28" height="28" viewBox="0 0 28 28" fill="none" xmlns="http://www.w3.org/2000/svg">
<path fill-rule="evenodd" clip-rule="evenodd" d="M7.10967 13.6111C7.02353 13.4029 6.95653 13.1827 6.91585 12.9554C5.61171 12.5438 4.66412 11.3235 4.66651 9.8805C4.66651 8.31075 5.78879 7.00183 7.27479 6.71468C7.52604 5.18561 8.85411 4.01786 10.455 4.01786C10.7948 4.01786 11.1226 4.07051 11.4289 4.16862C11.9482 3.08223 13.0561 2.33325 14.3387 2.33325C15.6213 2.33325 16.7292 3.08223 17.246 4.17103C17.5547 4.07292 17.8802 4.02028 18.22 4.02028C19.8208 4.02028 21.1489 5.18802 21.4001 6.71709C22.8861 7.00424 24.0084 8.31317 24.0084 9.88292C24.0084 11.3258 23.0608 12.5462 21.7567 12.9578C21.716 13.1851 21.649 13.4053 21.5628 13.6135C21.3379 14.1519 20.9718 14.6161 20.5099 14.9607C20.1773 15.2095 19.7945 15.3938 19.3805 15.4991C19.1269 15.5637 18.8612 15.5972 18.586 15.5972C18.1936 15.5972 17.8179 15.5278 17.4686 15.3986C17.4016 15.3747 17.3369 15.3483 17.2724 15.3196C16.8943 16.15 16.1764 16.7937 15.2934 17.0664C14.9919 17.1597 14.6688 17.21 14.3363 17.21C14.0036 17.21 13.6806 17.1574 13.3791 17.064C12.4985 16.7888 11.7782 16.1475 11.4001 15.3172C11.3355 15.3459 11.2709 15.3723 11.2039 15.3962C10.857 15.523 10.4789 15.5948 10.0864 15.5948C9.81125 15.5948 9.54566 15.5613 9.29201 15.4967C8.87801 15.3914 8.49515 15.2071 8.16256 14.9583C7.70072 14.6137 7.33461 14.1495 7.10967 13.6111ZM8.24152 16.126C8.58371 16.2935 8.94983 16.4156 9.32551 16.485L9.60548 24.707H11.5198L11.2542 16.8056C11.4887 17.0616 11.7543 17.289 12.0463 17.4804C12.4578 17.7508 12.9077 17.9446 13.3815 18.0547V24.7094H15.2958V18.0571C15.7672 17.947 16.2195 17.7532 16.6311 17.4828C16.923 17.289 17.1886 17.064 17.4232 16.808L17.1575 24.707H19.0719L19.3423 16.485C19.718 16.4156 20.0841 16.2936 20.4263 16.1261C20.7278 15.9777 21.0126 15.7935 21.2734 15.5733C21.3282 15.5281 21.3806 15.4804 21.433 15.4328L21.4337 15.4321L20.8187 24.3338L20.8115 24.4032C20.8043 24.4726 20.79 24.5396 20.7732 24.6066C20.7613 24.6496 20.7469 24.6927 20.7326 24.7358C20.7182 24.7789 20.7015 24.8195 20.6823 24.8602C20.6608 24.9057 20.6392 24.9487 20.6129 24.9918C20.607 25.0014 20.6004 25.0109 20.5938 25.0204C20.5872 25.03 20.5806 25.0396 20.5746 25.0492C20.3856 25.3268 20.108 25.5326 19.7825 25.6211C19.7809 25.622 19.779 25.6225 19.777 25.6229C19.7731 25.6238 19.7689 25.6243 19.7658 25.6259C19.7562 25.6283 19.746 25.6307 19.7357 25.6331C19.7256 25.6355 19.7155 25.6379 19.706 25.6403C19.6984 25.6414 19.6904 25.6429 19.6821 25.6445C19.672 25.6465 19.6614 25.6485 19.6509 25.6499C19.5792 25.6594 19.5074 25.6666 19.4332 25.6666H19.0336H17.1192H15.291H13.3767H11.5485H9.6342H9.23458C8.6196 25.6666 8.09316 25.2526 7.9113 24.6711L7.91129 24.6711C7.89933 24.628 7.88737 24.585 7.8778 24.5395C7.86347 24.4725 7.85387 24.4031 7.84909 24.3337L7.23411 15.4321C7.28675 15.4799 7.33939 15.5278 7.39443 15.5732C7.65287 15.7934 7.94002 15.9777 8.24152 16.126Z" fill="black"/>
<mask id="mask0_12_5623" style="mask-type:luminance" maskUnits="userSpaceOnUse" x="4" y="2" width="21" height="24">
<path fill-rule="evenodd" clip-rule="evenodd" d="M7.10967 13.6111C7.02353 13.4029 6.95653 13.1827 6.91585 12.9554C5.61171 12.5438 4.66412 11.3235 4.66651 9.8805C4.66651 8.31075 5.78879 7.00183 7.27479 6.71468C7.52604 5.18561 8.85411 4.01786 10.455 4.01786C10.7948 4.01786 11.1226 4.07051 11.4289 4.16862C11.9482 3.08223 13.0561 2.33325 14.3387 2.33325C15.6213 2.33325 16.7292 3.08223 17.246 4.17103C17.5547 4.07292 17.8802 4.02028 18.22 4.02028C19.8208 4.02028 21.1489 5.18802 21.4001 6.71709C22.8861 7.00424 24.0084 8.31317 24.0084 9.88292C24.0084 11.3258 23.0608 12.5462 21.7567 12.9578C21.716 13.1851 21.649 13.4053 21.5628 13.6135C21.3379 14.1519 20.9718 14.6161 20.5099 14.9607C20.1773 15.2095 19.7945 15.3938 19.3805 15.4991C19.1269 15.5637 18.8612 15.5972 18.586 15.5972C18.1936 15.5972 17.8179 15.5278 17.4686 15.3986C17.4016 15.3747 17.3369 15.3483 17.2724 15.3196C16.8943 16.15 16.1764 16.7937 15.2934 17.0664C14.9919 17.1597 14.6688 17.21 14.3363 17.21C14.0036 17.21 13.6806 17.1574 13.3791 17.064C12.4985 16.7888 11.7782 16.1475 11.4001 15.3172C11.3355 15.3459 11.2709 15.3723 11.2039 15.3962C10.857 15.523 10.4789 15.5948 10.0864 15.5948C9.81125 15.5948 9.54566 15.5613 9.29201 15.4967C8.87801 15.3914 8.49515 15.2071 8.16256 14.9583C7.70072 14.6137 7.33461 14.1495 7.10967 13.6111ZM8.24152 16.126C8.58371 16.2935 8.94983 16.4156 9.32551 16.485L9.60548 24.707H11.5198L11.2542 16.8056C11.4887 17.0616 11.7543 17.289 12.0463 17.4804C12.4578 17.7508 12.9077 17.9446 13.3815 18.0547V24.7094H15.2958V18.0571C15.7672 17.947 16.2195 17.7532 16.6311 17.4828C16.923 17.289 17.1886 17.064 17.4232 16.808L17.1575 24.707H19.0719L19.3423 16.485C19.718 16.4156 20.0841 16.2936 20.4263 16.1261C20.7278 15.9777 21.0126 15.7935 21.2734 15.5733C21.3282 15.5281 21.3806 15.4804 21.433 15.4328L21.4337 15.4321L20.8187 24.3338L20.8115 24.4032C20.8043 24.4726 20.79 24.5396 20.7732 24.6066C20.7613 24.6496 20.7469 24.6927 20.7326 24.7358C20.7182 24.7789 20.7015 24.8195 20.6823 24.8602C20.6608 24.9057 20.6392 24.9487 20.6129 24.9918C20.607 25.0014 20.6004 25.0109 20.5938 25.0204C20.5872 25.03 20.5806 25.0396 20.5746 25.0492C20.3856 25.3268 20.108 25.5326 19.7825 25.6211C19.7809 25.622 19.779 25.6225 19.777 25.6229C19.7731 25.6238 19.7689 25.6243 19.7658 25.6259C19.7562 25.6283 19.746 25.6307 19.7357 25.6331C19.7256 25.6355 19.7155 25.6379 19.706 25.6403C19.6984 25.6414 19.6904 25.6429 19.6821 25.6445C19.672 25.6465 19.6614 25.6485 19.6509 25.6499C19.5792 25.6594 19.5074 25.6666 19.4332 25.6666H19.0336H17.1192H15.291H13.3767H11.5485H9.6342H9.23458C8.6196 25.6666 8.09316 25.2526 7.9113 24.6711L7.91129 24.6711C7.89933 24.628 7.88737 24.585 7.8778 24.5395C7.86347 24.4725 7.85387 24.4031 7.84909 24.3337L7.23411 15.4321C7.28675 15.4799 7.33939 15.5278 7.39443 15.5732C7.65287 15.7934 7.94002 15.9777 8.24152 16.126Z" fill="white"/>
</mask>
<g mask="url(#mask0_12_5623)">
<rect width="28" height="28" fill="#8E8E93"/>
</g>
</svg>
