<svg width="28" height="28" viewBox="0 0 28 28" fill="none" xmlns="http://www.w3.org/2000/svg">
<path fill-rule="evenodd" clip-rule="evenodd" d="M13.9998 4.67822C8.1665 4.67822 3.14984 8.29489 1.1665 13.4282C3.14984 18.5616 8.1665 22.1782 13.9998 22.1782C19.8332 22.1782 24.8498 18.5616 26.8332 13.4282C24.8498 8.29489 19.8332 4.67822 13.9998 4.67822ZM13.9998 19.2616C10.7332 19.2616 8.1665 16.6949 8.1665 13.4282C8.1665 10.1616 10.7332 7.59489 13.9998 7.59489C17.2665 7.59489 19.8332 10.1616 19.8332 13.4282C19.8332 16.6949 17.2665 19.2616 13.9998 19.2616ZM10.4998 13.4282C10.4998 11.4449 12.0165 9.92822 13.9998 9.92822C15.9832 9.92822 17.4998 11.4449 17.4998 13.4282C17.4998 15.4116 15.9832 16.9282 13.9998 16.9282C12.0165 16.9282 10.4998 15.4116 10.4998 13.4282Z" fill="black"/>
<mask id="mask0_12_5628" style="mask-type:luminance" maskUnits="userSpaceOnUse" x="1" y="4" width="26" height="19">
<path fill-rule="evenodd" clip-rule="evenodd" d="M13.9998 4.67822C8.1665 4.67822 3.14984 8.29489 1.1665 13.4282C3.14984 18.5616 8.1665 22.1782 13.9998 22.1782C19.8332 22.1782 24.8498 18.5616 26.8332 13.4282C24.8498 8.29489 19.8332 4.67822 13.9998 4.67822ZM13.9998 19.2616C10.7332 19.2616 8.1665 16.6949 8.1665 13.4282C8.1665 10.1616 10.7332 7.59489 13.9998 7.59489C17.2665 7.59489 19.8332 10.1616 19.8332 13.4282C19.8332 16.6949 17.2665 19.2616 13.9998 19.2616ZM10.4998 13.4282C10.4998 11.4449 12.0165 9.92822 13.9998 9.92822C15.9832 9.92822 17.4998 11.4449 17.4998 13.4282C17.4998 15.4116 15.9832 16.9282 13.9998 16.9282C12.0165 16.9282 10.4998 15.4116 10.4998 13.4282Z" fill="white"/>
</mask>
<g mask="url(#mask0_12_5628)">
<rect width="28" height="28" fill="#8E8E93"/>
</g>
</svg>
