<svg width="28" height="28" viewBox="0 0 28 28" fill="none" xmlns="http://www.w3.org/2000/svg">
<path fill-rule="evenodd" clip-rule="evenodd" d="M25.6668 13.9999C25.6668 7.55657 20.4435 2.33325 14.0002 2.33325C7.55682 2.33325 2.3335 7.55657 2.3335 13.9999C2.3335 20.4433 7.47719 25.6666 14.0002 25.6666C20.5231 25.6666 25.6668 19.5181 25.6668 13.9999ZM19.7148 21.8655C18.4117 22.8121 16.5874 22.5235 15.6408 21.2199C14.6942 19.9168 14.9828 18.0929 16.2859 17.1459C17.5895 16.1993 19.4134 16.4879 20.36 17.7915C21.307 19.0946 21.0179 20.9185 19.7148 21.8655ZM23.2467 10.9954C22.7487 9.46351 21.1034 8.62516 19.5715 9.12314C18.0395 9.62065 17.2012 11.2665 17.6987 12.7984C18.1967 14.3303 19.842 15.1687 21.374 14.6707C22.9059 14.1732 23.7442 12.5278 23.2467 10.9954ZM14.0002 4.27769C15.6109 4.27769 16.9168 5.58364 16.9168 7.19436C16.9168 8.80508 15.6109 10.111 14.0002 10.111C12.3894 10.111 11.0835 8.80508 11.0835 7.19436C11.0835 5.58364 12.3894 4.27769 14.0002 4.27769ZM8.42887 9.12267C6.89695 8.62516 5.25158 9.46351 4.7536 10.9954C4.2561 12.5278 5.09445 14.1732 6.62636 14.6707C8.15828 15.1682 9.80365 14.3298 10.3016 12.7979C10.7991 11.266 9.96078 9.62065 8.42887 9.12267ZM12.3595 21.2199C11.413 22.5235 9.58862 22.8121 8.28551 21.8655C6.98241 20.9185 6.69331 19.0946 7.64037 17.7915C8.58696 16.4884 10.4113 16.1993 11.7144 17.1464C13.0175 18.0929 13.3061 19.9168 12.3595 21.2199ZM14.0002 13.0277C13.4633 13.0277 13.0279 13.463 13.0279 13.9999C13.0279 14.5368 13.4633 14.9721 14.0002 14.9721C14.5371 14.9721 14.9724 14.5368 14.9724 13.9999C14.9724 13.463 14.5371 13.0277 14.0002 13.0277Z" fill="black"/>
<mask id="mask0_12_5613" style="mask-type:luminance" maskUnits="userSpaceOnUse" x="2" y="2" width="24" height="24">
<path fill-rule="evenodd" clip-rule="evenodd" d="M25.6668 13.9999C25.6668 7.55657 20.4435 2.33325 14.0002 2.33325C7.55682 2.33325 2.3335 7.55657 2.3335 13.9999C2.3335 20.4433 7.47719 25.6666 14.0002 25.6666C20.5231 25.6666 25.6668 19.5181 25.6668 13.9999ZM19.7148 21.8655C18.4117 22.8121 16.5874 22.5235 15.6408 21.2199C14.6942 19.9168 14.9828 18.0929 16.2859 17.1459C17.5895 16.1993 19.4134 16.4879 20.36 17.7915C21.307 19.0946 21.0179 20.9185 19.7148 21.8655ZM23.2467 10.9954C22.7487 9.46351 21.1034 8.62516 19.5715 9.12314C18.0395 9.62065 17.2012 11.2665 17.6987 12.7984C18.1967 14.3303 19.842 15.1687 21.374 14.6707C22.9059 14.1732 23.7442 12.5278 23.2467 10.9954ZM14.0002 4.27769C15.6109 4.27769 16.9168 5.58364 16.9168 7.19436C16.9168 8.80508 15.6109 10.111 14.0002 10.111C12.3894 10.111 11.0835 8.80508 11.0835 7.19436C11.0835 5.58364 12.3894 4.27769 14.0002 4.27769ZM8.42887 9.12267C6.89695 8.62516 5.25158 9.46351 4.7536 10.9954C4.2561 12.5278 5.09445 14.1732 6.62636 14.6707C8.15828 15.1682 9.80365 14.3298 10.3016 12.7979C10.7991 11.266 9.96078 9.62065 8.42887 9.12267ZM12.3595 21.2199C11.413 22.5235 9.58862 22.8121 8.28551 21.8655C6.98241 20.9185 6.69331 19.0946 7.64037 17.7915C8.58696 16.4884 10.4113 16.1993 11.7144 17.1464C13.0175 18.0929 13.3061 19.9168 12.3595 21.2199ZM14.0002 13.0277C13.4633 13.0277 13.0279 13.463 13.0279 13.9999C13.0279 14.5368 13.4633 14.9721 14.0002 14.9721C14.5371 14.9721 14.9724 14.5368 14.9724 13.9999C14.9724 13.463 14.5371 13.0277 14.0002 13.0277Z" fill="white"/>
</mask>
<g mask="url(#mask0_12_5613)">
<rect width="28" height="28" fill="#8E8E93"/>
</g>
</svg>
