<svg width="28" height="28" viewBox="0 0 28 28" fill="none" xmlns="http://www.w3.org/2000/svg">
<path fill-rule="evenodd" clip-rule="evenodd" d="M3.8948 3.5H23.5386C25.0454 3.5 26.2669 5.77576 26.2669 8.58305V18.7492C26.2669 21.5565 25.0454 23.8323 23.5386 23.8323H3.8948C2.388 23.8323 1.1665 21.5565 1.1665 18.7492V8.58305C1.1665 5.77576 2.388 3.5 3.8948 3.5ZM4.15132 18.8037C3.74834 18.8037 3.42163 18.4742 3.42163 18.0677V10.7079C3.42163 10.3015 3.74834 9.97193 4.15132 9.97193C4.5543 9.97193 4.881 10.3015 4.881 10.7079V18.0678C4.881 18.4742 4.5543 18.8037 4.15132 18.8037ZM12.3986 18.0677C12.3986 18.4742 12.7253 18.8037 13.1283 18.8037C13.5313 18.8037 13.858 18.4742 13.858 18.0678V10.7079C13.858 10.3015 13.5313 9.97193 13.1283 9.97193H11.6689C11.3222 9.97187 11.0232 10.218 10.9539 10.5607L10.2096 14.3142L9.46536 10.5607C9.396 10.218 9.09713 9.97187 8.75031 9.97193H7.29101C6.88803 9.97193 6.56132 10.3015 6.56132 10.7079V18.0678C6.56132 18.4742 6.88796 18.8038 7.29094 18.8038C7.69392 18.8038 8.02063 18.4742 8.02063 18.0678V11.4439H8.15197L9.49457 18.2149C9.55292 18.5046 9.77729 18.731 10.0645 18.7898C10.4594 18.8706 10.8446 18.6133 10.9247 18.2149L12.2673 11.4439H12.3986V18.0677ZM15.6635 18.8037H17.1228C18.3318 18.8037 19.3118 17.8152 19.3118 16.5958V12.1799C19.3118 10.9605 18.3318 9.97193 17.1228 9.97193H15.6635C15.2605 9.97193 14.9338 10.3015 14.9338 10.7079V18.0677C14.9338 18.4742 15.2605 18.8037 15.6635 18.8037ZM17.1228 17.3318H16.3931V11.4439H17.1228C17.5258 11.4439 17.8525 11.7734 17.8525 12.1799V16.5958C17.8525 17.0022 17.5258 17.3318 17.1228 17.3318ZM20.8963 18.8037C20.4933 18.8037 20.1666 18.4742 20.1666 18.0677V16.5958V13.6518V10.7079C20.1666 10.3015 20.4933 9.97193 20.8963 9.97193C21.2993 9.97193 21.626 10.3015 21.626 10.7079V11.5695C21.8542 11.4881 22.0998 11.4439 22.3556 11.4439C23.5646 11.4439 24.5446 12.4324 24.5446 13.6518V16.5958C24.5446 17.8152 23.5646 18.8037 22.3556 18.8037C22.0177 18.8037 21.6977 18.7265 21.4119 18.5885C21.2799 18.7215 21.0976 18.8037 20.8963 18.8037ZM21.626 13.6418V16.6059C21.6314 17.0077 21.956 17.3318 22.3556 17.3318C22.7586 17.3318 23.0853 17.0022 23.0853 16.5958V13.6518C23.0853 13.2454 22.7586 12.9159 22.3556 12.9159C21.956 12.9159 21.6314 13.24 21.626 13.6418Z" fill="#FFC107"/>
<mask id="mask0_12_5618" style="mask-type:luminance" maskUnits="userSpaceOnUse" x="1" y="3" width="26" height="21">
<path fill-rule="evenodd" clip-rule="evenodd" d="M3.8948 3.5H23.5386C25.0454 3.5 26.2669 5.77576 26.2669 8.58305V18.7492C26.2669 21.5565 25.0454 23.8323 23.5386 23.8323H3.8948C2.388 23.8323 1.1665 21.5565 1.1665 18.7492V8.58305C1.1665 5.77576 2.388 3.5 3.8948 3.5ZM4.15132 18.8037C3.74834 18.8037 3.42163 18.4742 3.42163 18.0677V10.7079C3.42163 10.3015 3.74834 9.97193 4.15132 9.97193C4.5543 9.97193 4.881 10.3015 4.881 10.7079V18.0678C4.881 18.4742 4.5543 18.8037 4.15132 18.8037ZM12.3986 18.0677C12.3986 18.4742 12.7253 18.8037 13.1283 18.8037C13.5313 18.8037 13.858 18.4742 13.858 18.0678V10.7079C13.858 10.3015 13.5313 9.97193 13.1283 9.97193H11.6689C11.3222 9.97187 11.0232 10.218 10.9539 10.5607L10.2096 14.3142L9.46536 10.5607C9.396 10.218 9.09713 9.97187 8.75031 9.97193H7.29101C6.88803 9.97193 6.56132 10.3015 6.56132 10.7079V18.0678C6.56132 18.4742 6.88796 18.8038 7.29094 18.8038C7.69392 18.8038 8.02063 18.4742 8.02063 18.0678V11.4439H8.15197L9.49457 18.2149C9.55292 18.5046 9.77729 18.731 10.0645 18.7898C10.4594 18.8706 10.8446 18.6133 10.9247 18.2149L12.2673 11.4439H12.3986V18.0677ZM15.6635 18.8037H17.1228C18.3318 18.8037 19.3118 17.8152 19.3118 16.5958V12.1799C19.3118 10.9605 18.3318 9.97193 17.1228 9.97193H15.6635C15.2605 9.97193 14.9338 10.3015 14.9338 10.7079V18.0677C14.9338 18.4742 15.2605 18.8037 15.6635 18.8037ZM17.1228 17.3318H16.3931V11.4439H17.1228C17.5258 11.4439 17.8525 11.7734 17.8525 12.1799V16.5958C17.8525 17.0022 17.5258 17.3318 17.1228 17.3318ZM20.8963 18.8037C20.4933 18.8037 20.1666 18.4742 20.1666 18.0677V16.5958V13.6518V10.7079C20.1666 10.3015 20.4933 9.97193 20.8963 9.97193C21.2993 9.97193 21.626 10.3015 21.626 10.7079V11.5695C21.8542 11.4881 22.0998 11.4439 22.3556 11.4439C23.5646 11.4439 24.5446 12.4324 24.5446 13.6518V16.5958C24.5446 17.8152 23.5646 18.8037 22.3556 18.8037C22.0177 18.8037 21.6977 18.7265 21.4119 18.5885C21.2799 18.7215 21.0976 18.8037 20.8963 18.8037ZM21.626 13.6418V16.6059C21.6314 17.0077 21.956 17.3318 22.3556 17.3318C22.7586 17.3318 23.0853 17.0022 23.0853 16.5958V13.6518C23.0853 13.2454 22.7586 12.9159 22.3556 12.9159C21.956 12.9159 21.6314 13.24 21.626 13.6418Z" fill="white"/>
</mask>
<g mask="url(#mask0_12_5618)">
<rect width="28" height="28" fill="#8E8E93"/>
</g>
</svg>
