<svg width="24" height="24" viewBox="0 0 24 24" fill="none" xmlns="http://www.w3.org/2000/svg">
<path fill-rule="evenodd" clip-rule="evenodd" d="M21.5857 11.6356L3.01474 3.0644C2.71903 2.93012 2.36618 3.01012 2.16047 3.2644C1.95334 3.51868 1.94619 3.8801 2.14333 4.14152L8.25033 12.2842L2.14333 20.4268C1.94619 20.6883 1.95334 21.0511 2.15905 21.304C2.29761 21.4768 2.50475 21.5697 2.71475 21.5697C2.81617 21.5697 2.9176 21.5482 3.01331 21.504L21.5843 12.9327C21.8386 12.8156 22 12.5627 22 12.2842C22 12.0056 21.8386 11.7528 21.5857 11.6356Z" fill="black"/>
<mask id="mask0_0_9717" style="mask-type:luminance" maskUnits="userSpaceOnUse" x="2" y="3" width="20" height="19">
<path fill-rule="evenodd" clip-rule="evenodd" d="M21.5857 11.6356L3.01474 3.0644C2.71903 2.93012 2.36618 3.01012 2.16047 3.2644C1.95334 3.51868 1.94619 3.8801 2.14333 4.14152L8.25033 12.2842L2.14333 20.4268C1.94619 20.6883 1.95334 21.0511 2.15905 21.304C2.29761 21.4768 2.50475 21.5697 2.71475 21.5697C2.81617 21.5697 2.9176 21.5482 3.01331 21.504L21.5843 12.9327C21.8386 12.8156 22 12.5627 22 12.2842C22 12.0056 21.8386 11.7528 21.5857 11.6356Z" fill="white"/>
</mask>
<g mask="url(#mask0_0_9717)">
<rect width="24" height="24" fill="white"/>
</g>
</svg>
