<svg width="24" height="24" viewBox="0 0 24 24" fill="none" xmlns="http://www.w3.org/2000/svg">
<path fill-rule="evenodd" clip-rule="evenodd" d="M12.8 4.25185V9.06667H15.2636C16.7019 9.06667 17.2235 9.21642 17.7493 9.49764C18.2751 9.77886 18.6878 10.1915 18.969 10.7174C19.2502 11.2432 19.4 11.7648 19.4 13.2031V18.8636C19.4 20.3019 19.2502 20.8235 18.969 21.3493C18.6878 21.8751 18.2751 22.2878 17.7493 22.569C17.2235 22.8502 16.7019 23 15.2636 23H8.1364C6.69808 23 6.17652 22.8502 5.65069 22.569C5.12486 22.2878 4.71219 21.8751 4.43097 21.3493C4.14976 20.8235 4 20.3019 4 18.8636V13.2031C4 11.7648 4.14976 11.2432 4.43097 10.7174C4.71219 10.1915 5.12486 9.77886 5.65069 9.49764C6.17652 9.21642 6.69808 9.06667 8.1364 9.06667H10.6V4.26035L7.27336 6.85761C7.06727 7.01852 6.91273 7.08734 6.7524 7.1152C6.59206 7.14305 6.43397 7.12365 6.28514 7.05787C6.13631 6.99208 6.00303 6.88794 5.84201 6.68198L5.74222 6.55436C5.5812 6.3484 5.51233 6.19397 5.48446 6.03375C5.45659 5.87352 5.476 5.71554 5.54183 5.56682C5.60767 5.41809 5.71188 5.2849 5.91797 5.12399L10.8019 1.31092C11.3328 0.896361 12.0781 0.896361 12.609 1.31092L17.4929 5.12399C17.699 5.2849 17.8032 5.41809 17.8691 5.56682C17.9349 5.71554 17.9543 5.87352 17.9264 6.03375C17.8986 6.19397 17.8297 6.3484 17.6687 6.55436L17.5689 6.68198C17.4079 6.88794 17.2746 6.99208 17.1258 7.05787C16.9769 7.12365 16.8188 7.14305 16.6585 7.1152C16.4982 7.08734 16.3436 7.01852 16.1375 6.85761L12.8 4.25185ZM10.6 9.06667V14.6476C10.6 14.909 10.6408 15.0731 10.7175 15.2165C10.7942 15.3599 10.9068 15.4724 11.0502 15.5491C11.1936 15.6258 11.3577 15.6667 11.619 15.6667H11.781C12.0423 15.6667 12.2064 15.6258 12.3498 15.5491C12.4932 15.4724 12.6058 15.3599 12.6825 15.2165C12.7592 15.0731 12.8 14.909 12.8 14.6476V9.06667H10.6Z" fill="#141414"/>
<mask id="mask0_0_9683" style="mask-type:luminance" maskUnits="userSpaceOnUse" x="4" y="1" width="16" height="22">
<path fill-rule="evenodd" clip-rule="evenodd" d="M12.8 4.25185V9.06667H15.2636C16.7019 9.06667 17.2235 9.21642 17.7493 9.49764C18.2751 9.77886 18.6878 10.1915 18.969 10.7174C19.2502 11.2432 19.4 11.7648 19.4 13.2031V18.8636C19.4 20.3019 19.2502 20.8235 18.969 21.3493C18.6878 21.8751 18.2751 22.2878 17.7493 22.569C17.2235 22.8502 16.7019 23 15.2636 23H8.1364C6.69808 23 6.17652 22.8502 5.65069 22.569C5.12486 22.2878 4.71219 21.8751 4.43097 21.3493C4.14976 20.8235 4 20.3019 4 18.8636V13.2031C4 11.7648 4.14976 11.2432 4.43097 10.7174C4.71219 10.1915 5.12486 9.77886 5.65069 9.49764C6.17652 9.21642 6.69808 9.06667 8.1364 9.06667H10.6V4.26035L7.27336 6.85761C7.06727 7.01852 6.91273 7.08734 6.7524 7.1152C6.59206 7.14305 6.43397 7.12365 6.28514 7.05787C6.13631 6.99208 6.00303 6.88794 5.84201 6.68198L5.74222 6.55436C5.5812 6.3484 5.51233 6.19397 5.48446 6.03375C5.45659 5.87352 5.476 5.71554 5.54183 5.56682C5.60767 5.41809 5.71188 5.2849 5.91797 5.12399L10.8019 1.31092C11.3328 0.896361 12.0781 0.896361 12.609 1.31092L17.4929 5.12399C17.699 5.2849 17.8032 5.41809 17.8691 5.56682C17.9349 5.71554 17.9543 5.87352 17.9264 6.03375C17.8986 6.19397 17.8297 6.3484 17.6687 6.55436L17.5689 6.68198C17.4079 6.88794 17.2746 6.99208 17.1258 7.05787C16.9769 7.12365 16.8188 7.14305 16.6585 7.1152C16.4982 7.08734 16.3436 7.01852 16.1375 6.85761L12.8 4.25185ZM10.6 9.06667V14.6476C10.6 14.909 10.6408 15.0731 10.7175 15.2165C10.7942 15.3599 10.9068 15.4724 11.0502 15.5491C11.1936 15.6258 11.3577 15.6667 11.619 15.6667H11.781C12.0423 15.6667 12.2064 15.6258 12.3498 15.5491C12.4932 15.4724 12.6058 15.3599 12.6825 15.2165C12.7592 15.0731 12.8 14.909 12.8 14.6476V9.06667H10.6Z" fill="white"/>
</mask>
<g mask="url(#mask0_0_9683)">
<rect width="24" height="24" fill="#8E8E93"/>
</g>
</svg>
