<svg width="48" height="48" viewBox="0 0 48 48" fill="none" xmlns="http://www.w3.org/2000/svg">
<path fill-rule="evenodd" clip-rule="evenodd" d="M0 24C0 10.7452 10.7453 0 24 0C37.2547 0 48 10.7452 48 24C48 37.2548 37.2547 48 24 48C10.7453 48 0 37.2548 0 24ZM20.295 32.7722L32.295 25.2722C32.7334 24.9976 33 24.517 33 24C33 23.483 32.7334 23.0025 32.295 22.7278L20.295 15.2278C19.8325 14.9385 19.2495 14.9224 18.7727 15.1882C18.2959 15.4526 18 15.9544 18 16.5V31.5C18 32.0456 18.2959 32.5474 18.7727 32.8117C18.9994 32.9377 19.2499 33 19.5 33C19.7761 33 20.0522 32.9238 20.295 32.7722Z" fill="#2BB157"/>
</svg>
