<svg width="22" height="16" viewBox="0 0 22 16" fill="none" xmlns="http://www.w3.org/2000/svg">
<rect width="22" height="16" rx="2" fill="white"/>
<mask id="mask0_12_5569" style="mask-type:luminance" maskUnits="userSpaceOnUse" x="0" y="0" width="22" height="16">
<rect width="22" height="16" rx="2" fill="white"/>
</mask>
<g mask="url(#mask0_12_5569)">
<path fill-rule="evenodd" clip-rule="evenodd" d="M22.6021 1.23489C22.1611 0.502396 21.3497 0.00488281 20.4097 0.00488281H11.5V1.23489H22.6021H22.6021Z" fill="#B22334"/>
<path fill-rule="evenodd" clip-rule="evenodd" d="M0.0449219 13.5352H22.9554V12.3052H0.0449219V13.5352Z" fill="#B22334"/>
<rect x="11.5" y="7.38501" width="11.4553" height="1.23001" fill="#B22334"/>
<rect x="11.5" y="4.92505" width="11.4553" height="1.23001" fill="#B22334"/>
<rect x="0.0449219" y="9.84521" width="22.9105" height="1.23001" fill="#B22334"/>
<path fill-rule="evenodd" clip-rule="evenodd" d="M20.4096 15.9951C21.3496 15.9951 22.1611 15.4976 22.6021 14.7651H0.397949C0.838976 15.4976 1.65038 15.9951 2.59038 15.9951H20.4096Z" fill="#B22334"/>
<rect x="11.5" y="2.46484" width="11.4553" height="1.23001" fill="#B22334"/>
<path fill-rule="evenodd" clip-rule="evenodd" d="M0.0997945 2.46496C0.0997945 2.32166 0.142495 2.18388 0.196495 2.04736C0.139595 2.18328 0.0997945 2.32166 0.0997945 2.46496Z" fill="#EEEEEE"/>
<path fill-rule="evenodd" clip-rule="evenodd" d="M0.888802 1.26129C0.887402 1.26409 0.886002 1.26559 0.886002 1.26839C0.887402 1.26549 0.887402 1.26409 0.888802 1.26129Z" fill="#EEEEEE"/>
<path fill-rule="evenodd" clip-rule="evenodd" d="M0.28125 1.87724C0.31685 1.81449 0.36655 1.75486 0.41205 1.69458C0.36515 1.75486 0.31825 1.81514 0.28125 1.87724Z" fill="#EEEEEE"/>
<path fill-rule="evenodd" clip-rule="evenodd" d="M11.5 0.00488281H2.18608C0.780262 0.00488281 0 0.98238 0 2.34095L0.0447471 8.61509H11.5V0.00488281Z" fill="#3C3B6E"/>
<path fill-rule="evenodd" clip-rule="evenodd" d="M1.31836 1.68111L1.71164 1.95726L1.56147 2.40374L1.95413 2.12759L2.34741 2.40374L2.19657 1.95726L2.59052 1.68111H2.1043L1.95413 1.23462L1.80458 1.68111H1.31836Z" fill="white"/>
<path fill-rule="evenodd" clip-rule="evenodd" d="M2.59131 2.91109L2.98459 3.18724L2.83375 3.63372L3.22703 3.35757L3.62031 3.63372L3.46947 3.18724L3.86342 2.91109H3.37725L3.22708 2.4646L3.07753 2.91109H2.59131Z" fill="white"/>
<path fill-rule="evenodd" clip-rule="evenodd" d="M5.13672 2.91109L5.53 3.18724L5.37916 3.63372L5.77244 3.35757L6.16572 3.63372L6.01488 3.18724L6.40883 2.91109H5.92261L5.77244 2.4646L5.6229 2.91109H5.13672Z" fill="white"/>
<path fill-rule="evenodd" clip-rule="evenodd" d="M7.68262 2.91109L8.0759 3.18724L7.92506 3.63372L8.31834 3.35757L8.71162 3.63372L8.56078 3.18724L8.95473 2.91109H8.46851L8.31834 2.4646L8.16879 2.91109H7.68262Z" fill="white"/>
<path fill-rule="evenodd" clip-rule="evenodd" d="M2.59131 5.37129L2.98459 5.64744L2.83375 6.09393L3.22703 5.81778L3.62031 6.09393L3.46947 5.64744L3.86342 5.37129H3.37725L3.22708 4.9248L3.07753 5.37129H2.59131Z" fill="white"/>
<path fill-rule="evenodd" clip-rule="evenodd" d="M5.13672 5.37129L5.53 5.64744L5.37916 6.09393L5.77244 5.81778L6.16572 6.09393L6.01488 5.64744L6.40883 5.37129H5.92261L5.77244 4.9248L5.6229 5.37129H5.13672Z" fill="white"/>
<path fill-rule="evenodd" clip-rule="evenodd" d="M7.68262 5.37129L8.0759 5.64744L7.92506 6.09393L8.31834 5.81778L8.71162 6.09393L8.56078 5.64744L8.95473 5.37129H8.46851L8.31834 4.9248L8.16879 5.37129H7.68262Z" fill="white"/>
<path fill-rule="evenodd" clip-rule="evenodd" d="M3.86377 1.68111L4.25705 1.95726L4.10621 2.40374L4.49949 2.12759L4.89277 2.40374L4.74193 1.95726L5.13588 1.68111H4.64966L4.49949 1.23462L4.34995 1.68111H3.86377Z" fill="white"/>
<path fill-rule="evenodd" clip-rule="evenodd" d="M6.40967 1.68111L6.80295 1.95726L6.65211 2.40374L7.04539 2.12759L7.43867 2.40374L7.28783 1.95726L7.68178 1.68111H7.19556L7.04539 1.23462L6.89585 1.68111H6.40967Z" fill="white"/>
<path fill-rule="evenodd" clip-rule="evenodd" d="M8.95508 1.68111L9.34836 1.95726L9.19752 2.40374L9.5908 2.12759L9.98408 2.40374L9.83324 1.95726L10.2272 1.68111H9.74097L9.5908 1.23462L9.44126 1.68111H8.95508Z" fill="white"/>
<path fill-rule="evenodd" clip-rule="evenodd" d="M1.31836 4.14131L1.71164 4.41746L1.56147 4.86395L1.95413 4.5878L2.34741 4.86395L2.19657 4.41746L2.59052 4.14131H2.1043L1.95413 3.69482L1.80458 4.14131H1.31836Z" fill="white"/>
<path fill-rule="evenodd" clip-rule="evenodd" d="M4.10674 4.86383L4.50002 4.58768L4.89268 4.86383L4.74251 4.41734L5.13579 4.14119H4.6502L4.50002 3.69531L4.34985 4.14119H3.86426L4.25691 4.41734L4.10674 4.86383Z" fill="white"/>
<path fill-rule="evenodd" clip-rule="evenodd" d="M6.40967 4.14131L6.80295 4.41746L6.65211 4.86395L7.04539 4.5878L7.43867 4.86395L7.28783 4.41746L7.68178 4.14131H7.19556L7.04539 3.69482L6.89585 4.14131H6.40967Z" fill="white"/>
<path fill-rule="evenodd" clip-rule="evenodd" d="M8.95508 4.14131L9.34836 4.41746L9.19752 4.86395L9.5908 4.5878L9.98408 4.86395L9.83324 4.41746L10.2272 4.14131H9.74097L9.5908 3.69482L9.44126 4.14131H8.95508Z" fill="white"/>
<path fill-rule="evenodd" clip-rule="evenodd" d="M1.31836 6.60127L1.71164 6.87742L1.56147 7.32391L1.95413 7.04776L2.34741 7.32391L2.19657 6.87742L2.59052 6.60127H2.1043L1.95413 6.15479L1.80458 6.60127H1.31836Z" fill="white"/>
<path fill-rule="evenodd" clip-rule="evenodd" d="M4.10674 7.32379L4.50002 7.04764L4.89268 7.32379L4.74251 6.87731L5.13579 6.60115H4.6502L4.50002 6.15527L4.34985 6.60115H3.86426L4.25691 6.87731L4.10674 7.32379Z" fill="white"/>
<path fill-rule="evenodd" clip-rule="evenodd" d="M6.40967 6.60127L6.80295 6.87742L6.65211 7.32391L7.04539 7.04776L7.43867 7.32391L7.28783 6.87742L7.68178 6.60127H7.19556L7.04539 6.15479L6.89585 6.60127H6.40967Z" fill="white"/>
<path fill-rule="evenodd" clip-rule="evenodd" d="M8.95508 6.60127L9.34836 6.87742L9.19752 7.32391L9.5908 7.04776L9.98408 7.32391L9.83324 6.87742L10.2272 6.60127H9.74097L9.5908 6.15479L9.44126 6.60127H8.95508Z" fill="white"/>
</g>
</svg>
