<svg width="190" height="160" viewBox="0 0 190 160" fill="none" xmlns="http://www.w3.org/2000/svg">
<g id="img">
<path id="Fill 1" fill-rule="evenodd" clip-rule="evenodd" d="M160 147.5C160 154.404 132.465 160 98.5 160C64.5342 160 37 154.404 37 147.5C37 140.596 64.5342 135 98.5 135C132.465 135 160 140.596 160 147.5Z" fill="#8E8E93"/>
<path id="Fill 3" fill-rule="evenodd" clip-rule="evenodd" d="M143.032 83H62V59.4719C62 49.2702 70.295 41 80.5285 41H126.471C136.704 41 145 49.2702 145 59.4719V81.0385C145 82.1218 144.119 83 143.032 83Z" fill="#D7D7D7"/>
<path id="Fill 5" fill-rule="evenodd" clip-rule="evenodd" d="M143 79H60V59.1586C60 49.1297 68.295 41 78.5285 41H124.471C134.704 41 143 49.1297 143 59.1586V79Z" fill="#535353"/>
<path id="Fill 7" fill-rule="evenodd" clip-rule="evenodd" d="M79 43C70.1638 43 63 50.1231 63 58.9107V79H95V58.9107C95 50.1231 87.8369 43 79 43Z" fill="#ABABAB"/>
<path id="Fill 9" fill-rule="evenodd" clip-rule="evenodd" d="M60 58V59C60 58.6651 60.014 58.333 60.026 58H60Z" fill="#E7EAF0"/>
<path id="Fill 11" fill-rule="evenodd" clip-rule="evenodd" d="M140.027 58H140C140.012 58.333 140.027 58.6651 140.027 59V58Z" fill="#E7EAF0"/>
<path id="Fill 13" fill-rule="evenodd" clip-rule="evenodd" d="M123.661 41H78.1458C78.0966 41 78.0486 41.0032 78 41.0038C87.6256 41.0837 95.4055 49.0431 95.4055 58.8542V59H142C141.651 48.9994 133.577 41 123.661 41Z" fill="#161616"/>
<path id="Fill 15" fill-rule="evenodd" clip-rule="evenodd" d="M142 82H50.6684C49.7463 82 49 81.3283 49 80.4997C49 79.6711 49.7463 79 50.6684 79H142V82Z" fill="#D7D7D7"/>
<path id="Fill 17" fill-rule="evenodd" clip-rule="evenodd" d="M96 148H103V82H96V148Z" fill="#ABABAB"/>
<path id="Fill 19" fill-rule="evenodd" clip-rule="evenodd" d="M98 148H103V82H98V148Z" fill="#D7D7D7"/>
<path id="Fill 20" fill-rule="evenodd" clip-rule="evenodd" d="M108.01 87H91.9896C90.3383 87 89 85.6312 89 83.9419V82H111V83.9419C111 85.6312 109.661 87 108.01 87Z" fill="#D7D7D7"/>
<path id="Fill 21" fill-rule="evenodd" clip-rule="evenodd" d="M89 84H111V82H89V84Z" fill="#ABABAB"/>
<path id="Fill 22" fill-rule="evenodd" clip-rule="evenodd" d="M100 144C93.9249 144 89 146.501 89 149.586C89 152.672 93.9249 153 100 153C106.075 153 111 152.672 111 149.586C111 146.501 106.075 144 100 144Z" fill="#D7D7D7"/>
<path id="Fill 23" fill-rule="evenodd" clip-rule="evenodd" d="M96.1035 150.878C98.3519 148.42 97.9851 145.567 97.9676 144C91.7663 144 88 146.307 88 149.177C88 150.732 89.4767 151.535 91.8169 151.943C91.8169 151.943 94.7378 152.371 96.1035 150.878Z" fill="#ABABAB"/>
<path id="Fill 24" fill-rule="evenodd" clip-rule="evenodd" d="M118.938 68.7002C118.551 70.8748 116.474 72.3245 114.3 71.9375C112.126 71.5511 110.676 69.4747 111.062 67.3002C111.449 65.1257 113.525 63.676 115.7 64.0623C117.875 64.4493 119.324 66.5257 118.938 68.7002Z" fill="#BEC0D5"/>
<path id="Fill 25" fill-rule="evenodd" clip-rule="evenodd" d="M117.872 68.4341C117.357 70.2965 115.428 71.3877 113.566 70.8723C111.704 70.3563 110.612 68.4285 111.128 66.5661C111.643 64.7037 113.572 63.6119 115.434 64.1279C117.296 64.6439 118.388 66.5717 117.872 68.4341Z" fill="#4A9766"/>
<path id="Fill 26" fill-rule="evenodd" clip-rule="evenodd" d="M130.838 46.6298L121.436 44.0546C120.63 43.8333 119.787 44.3052 119.563 45.1026L118.273 49.7116L117.667 51.8755L113 68.5359L114.693 69L119.36 52.3389L128.535 54.8518C130.822 55.4783 133.21 54.1407 133.844 51.8797C134.477 49.618 133.125 47.2557 130.838 46.6298Z" fill="#2BB157"/>
<path id="Stroke 29" d="M92 63C93.2779 64.2401 94 65 94 65" stroke="#9D9D9D"/>
<path id="Stroke 30" d="M189 36.9435C189 36.9435 187.74 37.1909 186.899 36.6504C185.416 35.6962 185.968 34.4359 184.841 33.8628C183.44 33.1497 182.713 34.6173 181.37 33.9342C179.792 33.1315 180.832 31.8233 179.343 31.0654C177.783 30.2724 176.638 31.5438 175.168 30.7956C174.402 30.4061 174.304 30.0258 173.978 29.3051C173.626 28.5282 173.694 27.8523 172.732 27.3664C171.467 26.7273 170.527 28.0816 168.967 27.2886C167.478 26.5306 168.518 25.2225 166.94 24.4197C165.597 23.7367 164.87 25.2043 163.469 24.4916C162.342 23.9181 162.934 22.5973 161.41 21.7036C160.166 20.974 159.169 21.6376 158.526 21.5416C157.401 21.3741 157 20 157 20" stroke="#2BB157"/>
<path id="Stroke 31" d="M21 115C21 115 21.0897 113.678 21.8703 112.995C23.2479 111.792 24.3848 112.699 25.2769 111.741C26.3859 110.55 25.0843 109.411 26.1467 108.27C27.3951 106.929 28.4488 108.334 29.6273 107.068C30.861 105.744 29.8741 104.244 31.0379 102.996C31.6431 102.345 32.0582 102.355 32.8829 102.235C33.7724 102.106 34.444 102.366 35.2023 101.548C36.1983 100.471 35.071 99.1518 36.3042 97.8273C37.4837 96.5616 38.5369 97.9668 39.7853 96.6265C40.8477 95.485 39.5466 94.346 40.6551 93.1554C41.5472 92.1975 42.7353 93.1611 44.0617 91.9004C45.1454 90.8709 44.7384 89.691 45.0106 89.0791C45.4875 88.0082 47 88 47 88" stroke="#2BB157"/>
<path id="Fill 34" fill-rule="evenodd" clip-rule="evenodd" d="M22.573 9L22.384 8.98868C22.231 8.67017 22.106 8.33711 22 8C22.14 8.34681 22.338 8.68149 22.573 9Z" fill="#282526"/>
<path id="Fill 51" fill-rule="evenodd" clip-rule="evenodd" d="M37.014 1.37309C36.95 1.63509 37.111 1.90009 37.373 1.96409C37.635 2.02909 37.9 1.86809 37.964 1.60509C38.029 1.34309 37.868 1.07909 37.606 1.01409C37.343 0.950089 37.078 1.11009 37.014 1.37309Z" fill="#FEFEFE"/>
<path id="Fill 53" fill-rule="evenodd" clip-rule="evenodd" d="M40.029 2.76202C39.8974 3.2984 40.226 3.83948 40.7624 3.97112C41.2983 4.10233 41.8394 3.77409 41.971 3.23771C42.1026 2.70133 41.774 2.16026 41.238 2.02905C40.7017 1.89741 40.1606 2.22565 40.029 2.76202Z" fill="#FEFEFE"/>
<path id="Fill 55" fill-rule="evenodd" clip-rule="evenodd" d="M39.9644 2.60542C39.9004 2.86742 39.6354 3.02842 39.3724 2.96442C39.1104 2.89942 38.9494 2.63542 39.0144 2.37242C39.0784 2.11042 39.3434 1.94942 39.6054 2.01442C39.8674 2.07842 40.0284 2.34342 39.9644 2.60542Z" fill="#FEFEFE"/>
<path id="Fill 57" fill-rule="evenodd" clip-rule="evenodd" d="M12.9478 85.8817C12.7883 85.3725 12.0951 84.7535 10.5993 85.26C9.52781 85.6223 7.80794 86.6434 6.97502 87.3803C7.40729 86.3099 7.83693 84.2334 7.83693 83.0531C7.83693 81.4172 7.00928 81 6.4953 81C5.98263 81 5.20243 81.4968 5.20243 83.1327C5.20243 84.3075 5.60439 86.3263 6.01953 87.379C5.17607 86.62 3.4127 85.5523 2.33465 85.1872C0.838818 84.6822 0.203584 85.3725 0.0441169 85.8817C-0.114033 86.3895 0.0981513 87.3158 1.59266 87.8209C2.66413 88.1846 4.63177 88.411 5.723 88.3232C4.76883 88.9257 3.24928 90.342 2.58242 91.2958C1.65988 92.6202 2.09347 93.4642 2.50861 93.7785C2.92507 94.0928 3.83575 94.1697 4.75961 92.8453C5.4212 91.8956 6.23699 90.0167 6.4953 88.9092C6.74965 90.0401 7.57335 91.9834 8.2389 92.9386C9.16275 94.2616 10.0668 94.0928 10.4833 93.7785C10.8984 93.4642 11.249 92.5859 10.3265 91.2615C9.66356 90.3132 8.19804 88.9243 7.26759 88.3259C8.3786 88.4247 10.4082 88.2079 11.4862 87.8442C12.9807 87.3392 13.1059 86.3895 12.9478 85.8817Z" fill="#2BB157"/>
<path id="Fill 58" fill-rule="evenodd" clip-rule="evenodd" d="M22.9996 49.6065C23.0117 49.3308 22.7653 48.8996 21.8927 48.8655C21.2676 48.8407 20.1838 49.0151 19.6133 49.2166C20.0369 48.7783 20.645 47.8511 20.8622 47.2785C21.1657 46.4845 20.8113 46.1263 20.5443 46.0309C20.2772 45.9343 19.7796 46.0297 19.4762 46.8238C19.2589 47.394 19.0939 48.4496 19.1157 49.0375C18.8172 48.5109 18.0962 47.6638 17.6035 47.2844C16.9177 46.759 16.4577 46.9757 16.2817 47.1937C16.1045 47.4105 16.0451 47.8994 16.7296 48.4249C17.2199 48.8007 18.203 49.279 18.7856 49.4404C18.1775 49.5547 17.124 49.9576 16.6022 50.2957C15.8751 50.7658 15.9455 51.2571 16.1033 51.4868C16.2611 51.7178 16.7223 51.9251 17.4481 51.455C17.9676 51.1181 18.7407 50.3582 19.0805 49.8693C19.0029 50.4654 19.0732 51.5634 19.242 52.1513C19.4786 52.9666 19.9811 53.0538 20.2554 52.9784C20.5297 52.9042 20.8756 52.5436 20.6401 51.7272C20.4702 51.1428 19.9641 50.1956 19.5903 49.7314C20.151 49.9859 21.2482 50.2616 21.8757 50.2863C22.7483 50.3205 22.9887 49.8822 22.9996 49.6065Z" fill="#DFE1EC"/>
<path id="Fill 59" fill-rule="evenodd" clip-rule="evenodd" d="M97.1416 21.0915C96.873 20.9199 96.3097 20.9142 95.7969 21.7558C95.428 22.3592 95.0044 23.5326 94.8916 24.2133C94.6889 23.5404 94.1013 22.401 93.6528 21.8529C93.03 21.0922 92.4805 21.2354 92.2375 21.4438C91.9953 21.6516 91.8161 22.1989 92.4382 22.9597C92.8853 23.5043 93.8432 24.2799 94.4404 24.5997C93.7532 24.5905 92.5137 24.8103 91.8659 25.0783C90.9676 25.4498 90.9302 26.0298 91.0486 26.3304C91.1676 26.6303 91.6195 26.9749 92.5185 26.6027C93.1622 26.3361 94.1788 25.6419 94.6598 25.1598C94.4383 25.8263 94.2598 27.1018 94.3082 27.8151C94.376 28.8056 94.9027 29.0211 95.2183 28.9984C95.5339 28.9757 95.9934 28.6411 95.9256 27.6513C95.8772 26.9409 95.5463 25.7369 95.2474 25.1187C95.7983 25.5406 96.9263 26.1085 97.6046 26.2815C98.5444 26.5218 98.907 26.0752 98.9839 25.7611C99.06 25.4463 98.8911 24.8953 97.9513 24.655C97.2772 24.4834 96.0578 24.4331 95.3906 24.533C95.9526 24.1275 96.8287 23.2036 97.199 22.5967C97.7118 21.7551 97.4101 21.263 97.1416 21.0915Z" fill="#DFE1EC"/>
<path id="Fill 94" fill-rule="evenodd" clip-rule="evenodd" d="M141.477 9.92019C139.453 9.14923 137.812 7.8717 136.813 6.28847L136 5L135.357 6.0929C134.353 7.79651 132.617 9.16793 130.453 9.96431L129 10.5002L130.5 11.0925C132.304 11.8049 133.797 12.9239 134.787 14.3066L136 16L136.932 14.6152C137.86 13.2363 139.283 12.1014 141.024 11.3513L143 10.5002L141.477 9.92019Z" fill="#E8E9EB"/>
<path id="Fill 95" fill-rule="evenodd" clip-rule="evenodd" d="M147.456 1.34189C146.733 1.13168 146.147 0.782998 145.791 0.351159L145.5 0L145.27 0.297991C144.912 0.762597 144.292 1.13663 143.519 1.35394L143 1.50015L143.536 1.66151C144.18 1.85595 144.713 2.16105 145.067 2.53818L145.5 3L145.833 2.62257C146.164 2.24637 146.672 1.93663 147.294 1.7323L148 1.50015L147.456 1.34189Z" fill="#E8E9EB"/>
<path id="Fill 96" fill-rule="evenodd" clip-rule="evenodd" d="M131.456 4.34189C130.733 4.13168 130.147 3.78331 129.791 3.35147L129.5 3L129.27 3.29799C128.912 3.7626 128.292 4.13663 127.519 4.35394L127 4.50015L127.536 4.66182C128.18 4.85595 128.713 5.16105 129.067 5.53818L129.5 6L129.833 5.62257C130.165 5.24637 130.672 4.93663 131.294 4.7323L132 4.50015L131.456 4.34189Z" fill="#E8E9EB"/>
<path id="Stroke 97" d="M132.284 16.6437C123.18 22.2593 126.981 29.332 131.389 32.3289" stroke="#E8E9EB"/>
</g>
</svg>
