<svg width="24" height="24" viewBox="0 0 24 24" fill="none" xmlns="http://www.w3.org/2000/svg">
<path d="M9.62132 12.5L17.5607 4.56066C18.1464 3.97487 18.1464 3.02513 17.5607 2.43934C16.9749 1.85355 16.0251 1.85355 15.4393 2.43934L6.43934 11.4393C5.85355 12.0251 5.85355 12.9749 6.43934 13.5607L15.4393 22.5607C16.0251 23.1464 16.9749 23.1464 17.5607 22.5607C18.1464 21.9749 18.1464 21.0251 17.5607 20.4393L9.62132 12.5Z" fill="#535353"/>
<mask id="mask0_101_3366" style="mask-type:luminance" maskUnits="userSpaceOnUse" x="6" y="2" width="12" height="21">
<path d="M9.62132 12.5L17.5607 4.56066C18.1464 3.97487 18.1464 3.02513 17.5607 2.43934C16.9749 1.85355 16.0251 1.85355 15.4393 2.43934L6.43934 11.4393C5.85355 12.0251 5.85355 12.9749 6.43934 13.5607L15.4393 22.5607C16.0251 23.1464 16.9749 23.1464 17.5607 22.5607C18.1464 21.9749 18.1464 21.0251 17.5607 20.4393L9.62132 12.5Z" fill="white"/>
</mask>
<g mask="url(#mask0_101_3366)">
<rect width="24" height="24" fill="#8E8E93"/>
</g>
</svg>
