<svg width="24" height="24" viewBox="0 0 24 24" fill="none" xmlns="http://www.w3.org/2000/svg">
<path fill-rule="evenodd" clip-rule="evenodd" d="M13.0607 12L15.5746 9.48608C15.7006 9.36008 15.76 9.26129 15.7922 9.15517C15.8243 9.04906 15.8243 8.94054 15.7922 8.83442C15.76 8.7283 15.7006 8.62951 15.5746 8.50351L15.4965 8.42542C15.3705 8.29942 15.2717 8.24001 15.1656 8.20785C15.0595 8.17568 14.9509 8.17568 14.8448 8.20785C14.7387 8.24001 14.6399 8.29942 14.5139 8.42542L12 10.9393L9.48608 8.42542C9.36008 8.29942 9.26129 8.24001 9.15517 8.20785C9.04906 8.17568 8.94054 8.17568 8.83442 8.20785C8.7283 8.24001 8.62951 8.29942 8.50351 8.42542L8.42542 8.50351C8.29942 8.62951 8.24001 8.7283 8.20785 8.83442C8.17568 8.94054 8.17568 9.04906 8.20785 9.15517C8.24001 9.26129 8.29942 9.36008 8.42542 9.48608L10.9393 12L8.42542 14.5139C8.29942 14.6399 8.24001 14.7387 8.20785 14.8448C8.17568 14.9509 8.17568 15.0595 8.20785 15.1656C8.24001 15.2717 8.29942 15.3705 8.42542 15.4965L8.50351 15.5746C8.62951 15.7006 8.7283 15.76 8.83442 15.7922C8.94054 15.8243 9.04906 15.8243 9.15517 15.7922C9.26129 15.76 9.36008 15.7006 9.48608 15.5746L12 13.0607L14.5139 15.5746C14.6399 15.7006 14.7387 15.76 14.8448 15.7922C14.9509 15.8243 15.0595 15.8243 15.1656 15.7922C15.2717 15.76 15.3705 15.7006 15.4965 15.5746L15.5746 15.4965C15.7006 15.3705 15.76 15.2717 15.7922 15.1656C15.8243 15.0595 15.8243 14.9509 15.7922 14.8448C15.76 14.7387 15.7006 14.6399 15.5746 14.5139L13.0607 12ZM6.34315 17.6569C3.21895 14.5327 3.21895 9.46734 6.34315 6.34315C9.46734 3.21895 14.5327 3.21895 17.6569 6.34315C20.781 9.46734 20.781 14.5327 17.6569 17.6569C14.5327 20.781 9.46734 20.781 6.34315 17.6569Z" fill="#141414"/>
<mask id="mask0_101_2323" style="mask-type:luminance" maskUnits="userSpaceOnUse" x="4" y="4" width="16" height="16">
<path fill-rule="evenodd" clip-rule="evenodd" d="M13.0607 12L15.5746 9.48608C15.7006 9.36008 15.76 9.26129 15.7922 9.15517C15.8243 9.04906 15.8243 8.94054 15.7922 8.83442C15.76 8.7283 15.7006 8.62951 15.5746 8.50351L15.4965 8.42542C15.3705 8.29942 15.2717 8.24001 15.1656 8.20785C15.0595 8.17568 14.9509 8.17568 14.8448 8.20785C14.7387 8.24001 14.6399 8.29942 14.5139 8.42542L12 10.9393L9.48608 8.42542C9.36008 8.29942 9.26129 8.24001 9.15517 8.20785C9.04906 8.17568 8.94054 8.17568 8.83442 8.20785C8.7283 8.24001 8.62951 8.29942 8.50351 8.42542L8.42542 8.50351C8.29942 8.62951 8.24001 8.7283 8.20785 8.83442C8.17568 8.94054 8.17568 9.04906 8.20785 9.15517C8.24001 9.26129 8.29942 9.36008 8.42542 9.48608L10.9393 12L8.42542 14.5139C8.29942 14.6399 8.24001 14.7387 8.20785 14.8448C8.17568 14.9509 8.17568 15.0595 8.20785 15.1656C8.24001 15.2717 8.29942 15.3705 8.42542 15.4965L8.50351 15.5746C8.62951 15.7006 8.7283 15.76 8.83442 15.7922C8.94054 15.8243 9.04906 15.8243 9.15517 15.7922C9.26129 15.76 9.36008 15.7006 9.48608 15.5746L12 13.0607L14.5139 15.5746C14.6399 15.7006 14.7387 15.76 14.8448 15.7922C14.9509 15.8243 15.0595 15.8243 15.1656 15.7922C15.2717 15.76 15.3705 15.7006 15.4965 15.5746L15.5746 15.4965C15.7006 15.3705 15.76 15.2717 15.7922 15.1656C15.8243 15.0595 15.8243 14.9509 15.7922 14.8448C15.76 14.7387 15.7006 14.6399 15.5746 14.5139L13.0607 12ZM6.34315 17.6569C3.21895 14.5327 3.21895 9.46734 6.34315 6.34315C9.46734 3.21895 14.5327 3.21895 17.6569 6.34315C20.781 9.46734 20.781 14.5327 17.6569 17.6569C14.5327 20.781 9.46734 20.781 6.34315 17.6569Z" fill="white"/>
</mask>
<g mask="url(#mask0_101_2323)">
<rect width="24" height="24" fill="#8E8E93"/>
</g>
</svg>
