<svg width="24" height="24" viewBox="0 0 24 24" fill="none" xmlns="http://www.w3.org/2000/svg">
<path d="M13.8975 2V6.43945C13.8977 7.25299 14.5635 7.91872 15.377 7.91895H19.0762V20.4961C19.0762 21.3099 18.4105 21.9756 17.5967 21.9756H6.49902C5.68526 21.9755 5.01953 21.3098 5.01953 20.4961V3.47949C5.01964 2.6658 5.68533 2.00011 6.49902 2H13.8975ZM19.0762 7.17871H15.377C15.0073 7.17849 14.6379 6.88298 14.6377 6.43945V2L19.0762 7.17871Z" fill="black"/>
<mask id="mask0_159_4290" style="mask-type:luminance" maskUnits="userSpaceOnUse" x="5" y="2" width="15" height="20">
<path d="M13.8975 2V6.43945C13.8977 7.25299 14.5635 7.91872 15.377 7.91895H19.0762V20.4961C19.0762 21.3099 18.4105 21.9756 17.5967 21.9756H6.49902C5.68526 21.9755 5.01953 21.3098 5.01953 20.4961V3.47949C5.01964 2.6658 5.68533 2.00011 6.49902 2H13.8975ZM19.0762 7.17871H15.377C15.0073 7.17849 14.6379 6.88298 14.6377 6.43945V2L19.0762 7.17871Z" fill="white"/>
</mask>
<g mask="url(#mask0_159_4290)">
<rect width="24" height="24" fill="#8E8E93"/>
</g>
</svg>
