<svg width="24" height="24" viewBox="0 0 24 24" fill="none" xmlns="http://www.w3.org/2000/svg">
<path fill-rule="evenodd" clip-rule="evenodd" d="M21.5921 4.34027L19.7777 2.52589C19.0765 1.8247 17.938 1.8247 17.2344 2.52589L15.4964 4.26388L19.5648 8.33233L21.5921 6.30507C22.136 5.76118 22.136 4.88411 21.5921 4.34027ZM14.4365 5.32148L18.5049 9.38989L8.20657 19.6883L4.14042 15.6199L14.4365 5.32148ZM2.57139 21.8891C2.23813 21.9701 1.93728 21.6716 2.01132 21.3383L3.03885 16.7215L7.105 20.7899L2.57139 21.8891Z" fill="black"/>
<mask id="mask0_1_11806" style="mask-type:luminance" maskUnits="userSpaceOnUse" x="2" y="2" width="20" height="20">
<path fill-rule="evenodd" clip-rule="evenodd" d="M21.5921 4.34027L19.7777 2.52589C19.0765 1.8247 17.938 1.8247 17.2344 2.52589L15.4964 4.26388L19.5648 8.33233L21.5921 6.30507C22.136 5.76118 22.136 4.88411 21.5921 4.34027ZM14.4365 5.32148L18.5049 9.38989L8.20657 19.6883L4.14042 15.6199L14.4365 5.32148ZM2.57139 21.8891C2.23813 21.9701 1.93728 21.6716 2.01132 21.3383L3.03885 16.7215L7.105 20.7899L2.57139 21.8891Z" fill="white"/>
</mask>
<g mask="url(#mask0_1_11806)">
<rect width="24" height="24" fill="#8E8E93"/>
</g>
</svg>
