<svg width="100" height="88" viewBox="0 0 100 88" fill="none" xmlns="http://www.w3.org/2000/svg">
<path d="M50.0078 0.753906C55.2323 0.753948 60.0014 3.32325 62.8721 7.65723L63.1436 8.08203L88.1299 48.5361C89.0173 49.9727 88.6136 51.843 87.2393 52.791L87.1035 52.8799C85.6675 53.7675 83.7969 53.3638 82.8486 51.9893L82.7598 51.8535L57.7744 11.3994C56.0994 8.68783 53.1935 7.06543 50.0078 7.06543C46.9218 7.06545 44.0984 8.58804 42.4023 11.1484L42.2412 11.3994L8.45801 66.0967C6.74788 68.8658 6.62202 72.208 8.10352 75.082L8.25195 75.3594C9.88606 78.289 12.8722 80.0439 16.2246 80.0439H83.791C86.7662 80.0439 89.4467 78.6767 91.1719 76.2881L91.3359 76.0537C92.9934 73.6075 93.3909 70.5563 92.4033 67.8359L92.3037 67.5742C91.6575 65.9555 92.4457 64.119 94.0645 63.4727C95.6326 62.8467 97.4047 63.5676 98.1016 65.085L98.166 65.2344C99.9916 69.809 99.4892 74.9898 96.8262 79.1904L96.5615 79.5938C93.6482 83.8931 88.9996 86.3555 83.791 86.3555H16.2246C10.7214 86.3555 5.82367 83.5797 3.00586 78.8936L2.73926 78.4336C0.0551102 73.6207 0.0938704 67.9852 2.81641 63.2373L3.08789 62.7803L36.8711 8.08203C39.7064 3.49168 44.6147 0.753906 50.0078 0.753906Z" fill="#535353" stroke="#121212" stroke-width="1.5"/>
<path d="M50.0078 64.6154H50.0098C51.7526 64.6156 53.165 66.0288 53.165 67.7717C53.1648 69.5144 51.7525 70.9267 50.0098 70.9269C48.2666 70.9269 46.8528 69.5143 46.8525 67.7717C46.8525 66.0284 48.265 64.6154 50.0078 64.6154Z" fill="#535353" stroke="#121212" stroke-width="1.5"/>
<path d="M50.0083 22.2363C51.7511 22.2365 53.1636 23.6497 53.1636 25.3926V54.1006C53.1636 55.8435 51.7511 57.2566 50.0083 57.2568C48.2653 57.2568 46.8521 55.8436 46.8521 54.1006V25.3926C46.8521 23.6496 48.2653 22.2363 50.0083 22.2363Z" fill="#535353" stroke="#121212" stroke-width="1.5"/>
</svg>
