<svg width="24" height="24" viewBox="0 0 24 24" fill="none" xmlns="http://www.w3.org/2000/svg">
<path fill-rule="evenodd" clip-rule="evenodd" d="M21.8937 2.56706C21.7329 2.19877 21.4545 2.0146 21.0573 2.0144H2.92129C2.52462 2.0144 2.24586 2.19877 2.08526 2.56706C1.92477 2.95421 1.99082 3.28502 2.28372 3.55887L9.26918 10.5441V17.4302C9.26918 17.6761 9.35896 17.8884 9.53836 18.0682L13.1654 21.6951C13.3356 21.8745 13.548 21.9645 13.8032 21.9645C13.9164 21.9645 14.0344 21.9407 14.1573 21.8935C14.5258 21.7328 14.7101 21.4543 14.7101 21.0575V10.5442L21.6953 3.55892C21.9883 3.28507 22.0542 2.95435 21.8937 2.56706Z" fill="black"/>
<mask id="mask0_101_3360" style="mask-type:luminance" maskUnits="userSpaceOnUse" x="2" y="2" width="20" height="20">
<path fill-rule="evenodd" clip-rule="evenodd" d="M21.8937 2.56706C21.7329 2.19877 21.4545 2.0146 21.0573 2.0144H2.92129C2.52462 2.0144 2.24586 2.19877 2.08526 2.56706C1.92477 2.95421 1.99082 3.28502 2.28372 3.55887L9.26918 10.5441V17.4302C9.26918 17.6761 9.35896 17.8884 9.53836 18.0682L13.1654 21.6951C13.3356 21.8745 13.548 21.9645 13.8032 21.9645C13.9164 21.9645 14.0344 21.9407 14.1573 21.8935C14.5258 21.7328 14.7101 21.4543 14.7101 21.0575V10.5442L21.6953 3.55892C21.9883 3.28507 22.0542 2.95435 21.8937 2.56706Z" fill="white"/>
</mask>
<g mask="url(#mask0_101_3360)">
<rect width="24" height="24" fill="#8E8E93"/>
</g>
</svg>
