<svg width="24" height="24" viewBox="0 0 24 24" fill="none" xmlns="http://www.w3.org/2000/svg">
<path fill-rule="evenodd" clip-rule="evenodd" d="M7.22217 17.5688V15.7671H2V13.5771C2.93018 11.7827 4.03613 9.98096 6.02832 7H9.76367V13.6797H11.104V15.7671H9.76367V17.5688H7.22217ZM4.24854 13.7017V13.7749H7.29541V8.8457H7.24414C5.95508 10.6987 5.09814 12.061 4.24854 13.7017ZM15.1945 17.5688H12.5065V7H15.1945V11.6436H15.2531L18.8493 7H21.735L18.0509 11.6948L21.9474 17.5688H18.7907L16.0954 13.438L15.1945 14.5806V17.5688Z" fill="white"/>
<mask id="mask0_159_5138" style="mask-type:luminance" maskUnits="userSpaceOnUse" x="2" y="7" width="20" height="11">
<path fill-rule="evenodd" clip-rule="evenodd" d="M7.22217 17.5688V15.7671H2V13.5771C2.93018 11.7827 4.03613 9.98096 6.02832 7H9.76367V13.6797H11.104V15.7671H9.76367V17.5688H7.22217ZM4.24854 13.7017V13.7749H7.29541V8.8457H7.24414C5.95508 10.6987 5.09814 12.061 4.24854 13.7017ZM15.1945 17.5688H12.5065V7H15.1945V11.6436H15.2531L18.8493 7H21.735L18.0509 11.6948L21.9474 17.5688H18.7907L16.0954 13.438L15.1945 14.5806V17.5688Z" fill="white"/>
</mask>
<g mask="url(#mask0_159_5138)">
<rect width="24" height="24" fill="#8E8E93"/>
</g>
</svg>
