<svg width="48" height="34" viewBox="0 0 48 34" fill="none" xmlns="http://www.w3.org/2000/svg">
<path d="M22.7275 20.6807C23.315 19.7407 24.685 19.7407 25.2725 20.6807L27.7656 24.6699C28.1819 25.3359 27.7033 26.2 26.918 26.2002H21.082C20.2967 26.2 19.8181 25.3359 20.2344 24.6699L22.7275 20.6807ZM34 7C35.1046 7 36 7.89543 36 9V21C36 22.1046 35.1046 23 34 23H28.8584C28.1689 23 27.5276 22.6443 27.1621 22.0596L25.6963 19.7139C24.913 18.4605 23.087 18.4605 22.3037 19.7139L20.8379 22.0596C20.4724 22.6443 19.8311 23 19.1416 23H14C12.8954 23 12 22.1046 12 21V9C12 7.89543 12.8954 7 14 7H34Z" fill="black"/>
<mask id="mask0_101_2264" style="mask-type:luminance" maskUnits="userSpaceOnUse" x="12" y="7" width="24" height="20">
<path d="M22.7275 20.6807C23.315 19.7407 24.685 19.7407 25.2725 20.6807L27.7656 24.6699C28.1819 25.3359 27.7033 26.2 26.918 26.2002H21.082C20.2967 26.2 19.8181 25.3359 20.2344 24.6699L22.7275 20.6807ZM34 7C35.1046 7 36 7.89543 36 9V21C36 22.1046 35.1046 23 34 23H28.8584C28.1689 23 27.5276 22.6443 27.1621 22.0596L25.6963 19.7139C24.913 18.4605 23.087 18.4605 22.3037 19.7139L20.8379 22.0596C20.4724 22.6443 19.8311 23 19.1416 23H14C12.8954 23 12 22.1046 12 21V9C12 7.89543 12.8954 7 14 7H34Z" fill="white"/>
</mask>
<g mask="url(#mask0_101_2264)">
<rect x="12" y="5" width="24" height="24" fill="#8E8E93"/>
</g>
</svg>
