<svg width="24" height="24" viewBox="0 0 24 24" fill="none" xmlns="http://www.w3.org/2000/svg">
<path fill-rule="evenodd" clip-rule="evenodd" d="M3 9.14549C3 4.654 6.65391 1 11.1455 1C14.8637 1 18.0001 3.50661 18.9734 6.91707C18.7954 7.10968 18.6709 7.35394 18.636 7.6305L18.547 8.34126L18.3961 9.1463L17.5637 9.14544C17.5637 5.60616 14.6841 2.72686 11.1455 2.72686C7.60597 2.72686 4.72648 5.60621 4.72648 9.14544C4.72648 11.5462 6.05377 13.6397 8.01064 14.7408L6.75543 15.9959C4.50037 14.5454 3 12.0197 3 9.14549ZM11.1455 4.02942C10.6683 4.02942 10.2823 4.41618 10.2823 4.89278V9.14549C10.2823 9.6221 10.6684 10.0087 11.1455 10.0087H16.0301C16.5071 10.0087 16.8934 9.6221 16.8934 9.14549C16.8934 8.66846 16.5071 8.28185 16.0301 8.28185H12.0089V4.89278C12.0089 4.41618 11.622 4.02942 11.1455 4.02942ZM19.7269 7.41477C19.9519 7.42635 20.131 7.60939 20.1369 7.83521L20.164 8.97889L20.1223 9.54235L20.1223 9.54331C20.0991 9.87437 20.0729 10.2498 19.9826 10.66L19.8694 11.2829L19.67 11.9912C19.592 12.3235 19.4537 12.6619 19.3197 12.9897C19.2589 13.1376 19.1975 13.2882 19.1401 13.4425C19.1336 13.4599 19.1254 13.4769 19.117 13.4937C19.0528 13.6154 18.9897 13.7398 18.9266 13.8655C18.743 14.2293 18.5532 14.605 18.3009 14.9654C18.0762 15.3501 17.778 15.7252 17.4905 16.0867L17.2792 16.3539C17.2697 16.3657 17.2598 16.3767 17.25 16.3874L17.0165 16.633C16.695 16.9732 16.3624 17.3246 15.9817 17.6279C15.6733 17.9176 15.3132 18.1685 14.9643 18.4107C14.8491 18.4909 14.7347 18.5709 14.6221 18.652C14.6069 18.6624 14.5923 18.672 14.5765 18.6808C14.4323 18.7599 14.291 18.8424 14.1513 18.9244C13.8244 19.1156 13.4862 19.3132 13.1291 19.454L12.282 19.8122L11.7711 19.9837C11.3328 20.1462 10.875 20.2414 10.5074 20.3175L9.71249 20.463V22.568C9.71249 22.7426 9.60744 22.9003 9.44593 22.9673C9.39243 22.9893 9.33607 23 9.28047 23C9.16828 23 9.05789 22.9561 8.97509 22.8739L5.26082 19.1596C5.18002 19.0785 5.13453 18.9687 5.13453 18.8543C5.13453 18.74 5.18002 18.6302 5.26082 18.5491L8.975 14.8349C9.09906 14.7116 9.2839 14.6749 9.44584 14.7415C9.60734 14.8084 9.71239 14.9662 9.71239 15.1405V17.1547L9.77699 17.1564L10.2343 17.1215L10.25 17.1205C10.4884 17.1062 10.7349 17.0914 11.0143 17.0314L11.5754 16.9356L12.1462 16.7774C12.4092 16.7193 12.6573 16.6205 12.9203 16.5155C13.0609 16.4592 13.2034 16.4025 13.3498 16.3499C13.4619 16.2914 13.5774 16.2344 13.6939 16.1771L13.7043 16.1719C13.9913 16.0309 14.2886 15.8841 14.5488 15.7028C14.885 15.5097 15.1672 15.2898 15.4668 15.0564L15.4699 15.054C15.5598 14.9839 15.6507 14.9132 15.7425 14.8434C15.8211 14.7683 15.9004 14.6943 15.9802 14.6198L15.9906 14.6102L15.9984 14.6029C16.2782 14.342 16.5434 14.0948 16.7647 13.8186C17.0193 13.5518 17.2095 13.2838 17.4106 13.0006L17.4166 12.9921C17.4938 12.8822 17.5715 12.7733 17.6509 12.666C17.7267 12.528 17.8075 12.3932 17.8875 12.2597C18.0452 11.9958 18.1938 11.7467 18.2918 11.4994L18.5661 10.896L18.7596 10.33C18.8873 9.99602 18.956 9.68878 19.0225 9.39148L19.0231 9.38846L19.1845 8.52863L19.2766 7.79224C19.3051 7.56728 19.5112 7.40239 19.7269 7.41477Z" fill="black"/>
<mask id="mask0_159_5089" style="mask-type:luminance" maskUnits="userSpaceOnUse" x="3" y="1" width="18" height="22">
<path fill-rule="evenodd" clip-rule="evenodd" d="M3 9.14549C3 4.654 6.65391 1 11.1455 1C14.8637 1 18.0001 3.50661 18.9734 6.91707C18.7954 7.10968 18.6709 7.35394 18.636 7.6305L18.547 8.34126L18.3961 9.1463L17.5637 9.14544C17.5637 5.60616 14.6841 2.72686 11.1455 2.72686C7.60597 2.72686 4.72648 5.60621 4.72648 9.14544C4.72648 11.5462 6.05377 13.6397 8.01064 14.7408L6.75543 15.9959C4.50037 14.5454 3 12.0197 3 9.14549ZM11.1455 4.02942C10.6683 4.02942 10.2823 4.41618 10.2823 4.89278V9.14549C10.2823 9.6221 10.6684 10.0087 11.1455 10.0087H16.0301C16.5071 10.0087 16.8934 9.6221 16.8934 9.14549C16.8934 8.66846 16.5071 8.28185 16.0301 8.28185H12.0089V4.89278C12.0089 4.41618 11.622 4.02942 11.1455 4.02942ZM19.7269 7.41477C19.9519 7.42635 20.131 7.60939 20.1369 7.83521L20.164 8.97889L20.1223 9.54235L20.1223 9.54331C20.0991 9.87437 20.0729 10.2498 19.9826 10.66L19.8694 11.2829L19.67 11.9912C19.592 12.3235 19.4537 12.6619 19.3197 12.9897C19.2589 13.1376 19.1975 13.2882 19.1401 13.4425C19.1336 13.4599 19.1254 13.4769 19.117 13.4937C19.0528 13.6154 18.9897 13.7398 18.9266 13.8655C18.743 14.2293 18.5532 14.605 18.3009 14.9654C18.0762 15.3501 17.778 15.7252 17.4905 16.0867L17.2792 16.3539C17.2697 16.3657 17.2598 16.3767 17.25 16.3874L17.0165 16.633C16.695 16.9732 16.3624 17.3246 15.9817 17.6279C15.6733 17.9176 15.3132 18.1685 14.9643 18.4107C14.8491 18.4909 14.7347 18.5709 14.6221 18.652C14.6069 18.6624 14.5923 18.672 14.5765 18.6808C14.4323 18.7599 14.291 18.8424 14.1513 18.9244C13.8244 19.1156 13.4862 19.3132 13.1291 19.454L12.282 19.8122L11.7711 19.9837C11.3328 20.1462 10.875 20.2414 10.5074 20.3175L9.71249 20.463V22.568C9.71249 22.7426 9.60744 22.9003 9.44593 22.9673C9.39243 22.9893 9.33607 23 9.28047 23C9.16828 23 9.05789 22.9561 8.97509 22.8739L5.26082 19.1596C5.18002 19.0785 5.13453 18.9687 5.13453 18.8543C5.13453 18.74 5.18002 18.6302 5.26082 18.5491L8.975 14.8349C9.09906 14.7116 9.2839 14.6749 9.44584 14.7415C9.60734 14.8084 9.71239 14.9662 9.71239 15.1405V17.1547L9.77699 17.1564L10.2343 17.1215L10.25 17.1205C10.4884 17.1062 10.7349 17.0914 11.0143 17.0314L11.5754 16.9356L12.1462 16.7774C12.4092 16.7193 12.6573 16.6205 12.9203 16.5155C13.0609 16.4592 13.2034 16.4025 13.3498 16.3499C13.4619 16.2914 13.5774 16.2344 13.6939 16.1771L13.7043 16.1719C13.9913 16.0309 14.2886 15.8841 14.5488 15.7028C14.885 15.5097 15.1672 15.2898 15.4668 15.0564L15.4699 15.054C15.5598 14.9839 15.6507 14.9132 15.7425 14.8434C15.8211 14.7683 15.9004 14.6943 15.9802 14.6198L15.9906 14.6102L15.9984 14.6029C16.2782 14.342 16.5434 14.0948 16.7647 13.8186C17.0193 13.5518 17.2095 13.2838 17.4106 13.0006L17.4166 12.9921C17.4938 12.8822 17.5715 12.7733 17.6509 12.666C17.7267 12.528 17.8075 12.3932 17.8875 12.2597C18.0452 11.9958 18.1938 11.7467 18.2918 11.4994L18.5661 10.896L18.7596 10.33C18.8873 9.99602 18.956 9.68878 19.0225 9.39148L19.0231 9.38846L19.1845 8.52863L19.2766 7.79224C19.3051 7.56728 19.5112 7.40239 19.7269 7.41477Z" fill="white"/>
</mask>
<g mask="url(#mask0_159_5089)">
<rect width="24" height="24" fill="#8E8E93"/>
</g>
</svg>
