<svg width="48" height="34" viewBox="0 0 48 34" fill="none" xmlns="http://www.w3.org/2000/svg">
<path d="M33.9619 22.9434C35.094 22.9434 36 23.7927 36 24.9248C35.9999 26.0568 35.0939 26.9619 33.9619 26.9619H13.9814C12.8495 26.9619 12.0001 26.0568 12 24.9248C12 23.7927 12.8494 22.9434 13.9814 22.9434H33.9619ZM33.9619 14.9434C35.094 14.9434 36 15.8494 36 16.9814C35.9998 18.1134 35.0939 18.9619 33.9619 18.9619H13.9814C12.8495 18.9619 12.0002 18.1134 12 16.9814C12 15.8494 12.8494 14.9434 13.9814 14.9434H33.9619ZM33.9619 7C35.094 7 36 7.90601 36 9.03809C35.9998 10.17 35.0939 11.0186 33.9619 11.0186H13.9814C12.8495 11.0186 12.0002 10.17 12 9.03809C12 7.90601 12.8494 7 13.9814 7H33.9619Z" fill="white"/>
<mask id="mask0_101_786" style="mask-type:luminance" maskUnits="userSpaceOnUse" x="12" y="7" width="24" height="20">
<path d="M33.9619 22.9434C35.094 22.9434 36 23.7927 36 24.9248C35.9999 26.0568 35.0939 26.9619 33.9619 26.9619H13.9814C12.8495 26.9619 12.0001 26.0568 12 24.9248C12 23.7927 12.8494 22.9434 13.9814 22.9434H33.9619ZM33.9619 14.9434C35.094 14.9434 36 15.8494 36 16.9814C35.9998 18.1134 35.0939 18.9619 33.9619 18.9619H13.9814C12.8495 18.9619 12.0002 18.1134 12 16.9814C12 15.8494 12.8494 14.9434 13.9814 14.9434H33.9619ZM33.9619 7C35.094 7 36 7.90601 36 9.03809C35.9998 10.17 35.0939 11.0186 33.9619 11.0186H13.9814C12.8495 11.0186 12.0002 10.17 12 9.03809C12 7.90601 12.8494 7 13.9814 7H33.9619Z" fill="white"/>
</mask>
<g mask="url(#mask0_101_786)">
<rect x="12" y="5" width="24" height="24" fill="#8E8E93"/>
</g>
</svg>
