<svg width="24" height="24" viewBox="0 0 24 24" fill="none" xmlns="http://www.w3.org/2000/svg">
<path d="M13.7407 21.9893H2.01611V19.9199H13.7407V21.9893ZM6.99072 17.332C7.0111 17.3403 7.03187 17.3498 7.05225 17.3574C7.17168 17.4015 7.29445 17.4362 7.41943 17.4609C7.44183 17.4655 7.4652 17.4688 7.48877 17.4727C7.74764 17.5155 8.01212 17.5156 8.271 17.4727C8.29201 17.4688 8.31282 17.4661 8.3335 17.4619C8.46191 17.4377 8.58792 17.4019 8.71045 17.3564C8.72683 17.3506 8.74306 17.3434 8.75928 17.3369C8.80991 17.3166 8.86327 17.2976 8.91357 17.2734V19.2305H6.84424V17.2715C6.89211 17.2945 6.94201 17.3126 6.99072 17.332ZM7.43213 13.4297C7.67468 13.3628 7.92918 13.3527 8.17627 13.4004C8.19883 13.4043 8.2216 13.4088 8.24365 13.4141C8.34159 13.4344 8.4377 13.463 8.53076 13.5C8.62281 13.5389 8.71177 13.5853 8.79541 13.6396C8.81646 13.6528 8.83754 13.6675 8.85791 13.6816C8.94207 13.7386 9.02066 13.803 9.09326 13.874C9.52766 14.3093 9.69816 14.9431 9.53955 15.5371V15.543C9.46478 15.8348 9.31062 16.1 9.09521 16.3105C9.0767 16.3306 9.05714 16.3484 9.02686 16.375C8.37076 16.9681 7.37051 16.9637 6.71924 16.3652C6.69971 16.3482 6.67906 16.3313 6.65869 16.3105H6.65674C6.33264 15.9879 6.15062 15.5491 6.15088 15.0918C6.15138 14.6344 6.33396 14.1953 6.65869 13.873C6.87067 13.6572 7.13882 13.5041 7.43213 13.4297ZM16.1675 13.1416L14.9468 14.3623C13.7236 15.5903 11.9003 15.9997 10.27 15.4111V15.4053C10.272 15.3894 10.2722 15.3713 10.2739 15.3545C10.2832 15.2726 10.2885 15.1899 10.2896 15.1074C10.2898 15.073 10.2847 15.0383 10.2847 15.0039C10.2823 14.94 10.2792 14.8767 10.272 14.8135C10.2674 14.7744 10.2605 14.7355 10.2544 14.6973C10.245 14.6382 10.2334 14.5793 10.2192 14.5215C10.2095 14.4824 10.1984 14.4436 10.187 14.4053C10.1702 14.3487 10.1514 14.293 10.1304 14.2383C10.1162 14.2003 10.1016 14.1622 10.0854 14.125C10.0614 14.07 10.0345 14.0169 10.0063 13.9639C9.98817 13.9295 9.97071 13.8949 9.95068 13.8604C9.91709 13.8039 9.87977 13.7494 9.84131 13.6953C9.82199 13.6681 9.80434 13.6397 9.78369 13.6133C9.72243 13.5335 9.65647 13.4571 9.58545 13.3857C9.51409 13.3147 9.43785 13.2488 9.35791 13.1875C9.33099 13.1665 9.3025 13.1486 9.2749 13.1289C9.22119 13.0893 9.16708 13.055 9.11084 13.0205C9.0759 12.9999 9.0397 12.9819 9.00342 12.9629C8.95173 12.936 8.90084 12.9098 8.84814 12.8867C8.80818 12.8688 8.76704 12.8533 8.72607 12.8379C8.67663 12.8203 8.62518 12.8016 8.57373 12.7861C8.52979 12.7747 8.48537 12.7616 8.44092 12.751C8.39073 12.7389 8.33912 12.7298 8.2876 12.7207C8.24107 12.7128 8.19559 12.7044 8.1499 12.6992C8.09679 12.6935 8.04319 12.6912 7.98975 12.6885C7.94496 12.6865 7.9001 12.6826 7.85498 12.6826C7.79032 12.683 7.72565 12.6894 7.66064 12.6953C7.62764 12.6983 7.59637 12.6976 7.56201 12.7021H7.55908C6.96916 11.0714 7.37805 9.24622 8.60791 8.02344L9.82861 6.80273L16.1675 13.1416ZM17.144 12.167L16.6558 12.6543L10.3169 6.31445L10.8042 5.82715L17.144 12.167ZM18.6079 10.7031L17.6313 11.6797L11.2915 5.33887L12.2681 4.36328L18.6079 10.7031ZM20.978 7.3418L18.5405 8.80469L18.1851 8.21387L20.6235 6.75L20.978 7.3418ZM18.6069 4.85156L16.6558 6.80273L16.1685 6.31445L18.1187 4.36426L18.6069 4.85156ZM16.2261 2.35547L14.7612 4.79199L14.1704 4.43652L15.6343 2L16.2261 2.35547Z" fill="black"/>
<mask id="mask0_159_4580" style="mask-type:luminance" maskUnits="userSpaceOnUse" x="2" y="2" width="19" height="20">
<path d="M13.7407 21.9893H2.01611V19.9199H13.7407V21.9893ZM6.99072 17.332C7.0111 17.3403 7.03187 17.3498 7.05225 17.3574C7.17168 17.4015 7.29445 17.4362 7.41943 17.4609C7.44183 17.4655 7.4652 17.4688 7.48877 17.4727C7.74764 17.5155 8.01212 17.5156 8.271 17.4727C8.29201 17.4688 8.31282 17.4661 8.3335 17.4619C8.46191 17.4377 8.58792 17.4019 8.71045 17.3564C8.72683 17.3506 8.74306 17.3434 8.75928 17.3369C8.80991 17.3166 8.86327 17.2976 8.91357 17.2734V19.2305H6.84424V17.2715C6.89211 17.2945 6.94201 17.3126 6.99072 17.332ZM7.43213 13.4297C7.67468 13.3628 7.92918 13.3527 8.17627 13.4004C8.19883 13.4043 8.2216 13.4088 8.24365 13.4141C8.34159 13.4344 8.4377 13.463 8.53076 13.5C8.62281 13.5389 8.71177 13.5853 8.79541 13.6396C8.81646 13.6528 8.83754 13.6675 8.85791 13.6816C8.94207 13.7386 9.02066 13.803 9.09326 13.874C9.52766 14.3093 9.69816 14.9431 9.53955 15.5371V15.543C9.46478 15.8348 9.31062 16.1 9.09521 16.3105C9.0767 16.3306 9.05714 16.3484 9.02686 16.375C8.37076 16.9681 7.37051 16.9637 6.71924 16.3652C6.69971 16.3482 6.67906 16.3313 6.65869 16.3105H6.65674C6.33264 15.9879 6.15062 15.5491 6.15088 15.0918C6.15138 14.6344 6.33396 14.1953 6.65869 13.873C6.87067 13.6572 7.13882 13.5041 7.43213 13.4297ZM16.1675 13.1416L14.9468 14.3623C13.7236 15.5903 11.9003 15.9997 10.27 15.4111V15.4053C10.272 15.3894 10.2722 15.3713 10.2739 15.3545C10.2832 15.2726 10.2885 15.1899 10.2896 15.1074C10.2898 15.073 10.2847 15.0383 10.2847 15.0039C10.2823 14.94 10.2792 14.8767 10.272 14.8135C10.2674 14.7744 10.2605 14.7355 10.2544 14.6973C10.245 14.6382 10.2334 14.5793 10.2192 14.5215C10.2095 14.4824 10.1984 14.4436 10.187 14.4053C10.1702 14.3487 10.1514 14.293 10.1304 14.2383C10.1162 14.2003 10.1016 14.1622 10.0854 14.125C10.0614 14.07 10.0345 14.0169 10.0063 13.9639C9.98817 13.9295 9.97071 13.8949 9.95068 13.8604C9.91709 13.8039 9.87977 13.7494 9.84131 13.6953C9.82199 13.6681 9.80434 13.6397 9.78369 13.6133C9.72243 13.5335 9.65647 13.4571 9.58545 13.3857C9.51409 13.3147 9.43785 13.2488 9.35791 13.1875C9.33099 13.1665 9.3025 13.1486 9.2749 13.1289C9.22119 13.0893 9.16708 13.055 9.11084 13.0205C9.0759 12.9999 9.0397 12.9819 9.00342 12.9629C8.95173 12.936 8.90084 12.9098 8.84814 12.8867C8.80818 12.8688 8.76704 12.8533 8.72607 12.8379C8.67663 12.8203 8.62518 12.8016 8.57373 12.7861C8.52979 12.7747 8.48537 12.7616 8.44092 12.751C8.39073 12.7389 8.33912 12.7298 8.2876 12.7207C8.24107 12.7128 8.19559 12.7044 8.1499 12.6992C8.09679 12.6935 8.04319 12.6912 7.98975 12.6885C7.94496 12.6865 7.9001 12.6826 7.85498 12.6826C7.79032 12.683 7.72565 12.6894 7.66064 12.6953C7.62764 12.6983 7.59637 12.6976 7.56201 12.7021H7.55908C6.96916 11.0714 7.37805 9.24622 8.60791 8.02344L9.82861 6.80273L16.1675 13.1416ZM17.144 12.167L16.6558 12.6543L10.3169 6.31445L10.8042 5.82715L17.144 12.167ZM18.6079 10.7031L17.6313 11.6797L11.2915 5.33887L12.2681 4.36328L18.6079 10.7031ZM20.978 7.3418L18.5405 8.80469L18.1851 8.21387L20.6235 6.75L20.978 7.3418ZM18.6069 4.85156L16.6558 6.80273L16.1685 6.31445L18.1187 4.36426L18.6069 4.85156ZM16.2261 2.35547L14.7612 4.79199L14.1704 4.43652L15.6343 2L16.2261 2.35547Z" fill="white"/>
</mask>
<g mask="url(#mask0_159_4580)">
<rect width="24" height="24" fill="#8E8E93"/>
</g>
</svg>
