<svg width="24" height="24" viewBox="0 0 24 24" fill="none" xmlns="http://www.w3.org/2000/svg">
<path fill-rule="evenodd" clip-rule="evenodd" d="M9.41667 2H14.4167L14.9705 3.10765C15.1418 3.45025 15.492 3.66667 15.875 3.66667H7.95833C8.34137 3.66667 8.69154 3.45025 8.86284 3.10765L9.41667 2ZM5.02122 3.66667H18.8121C19.0361 3.66667 19.215 3.70921 19.3644 3.7891C19.5138 3.86899 19.631 3.98623 19.7109 4.13561C19.7908 4.285 19.8333 4.46395 19.8333 4.68788V4.72878C19.8333 4.95272 19.7908 5.13167 19.7109 5.28105C19.631 5.43044 19.5138 5.54767 19.3644 5.62756C19.215 5.70745 19.0361 5.75 18.8121 5.75H5.02122C4.79728 5.75 4.61833 5.70745 4.46895 5.62756C4.31956 5.54767 4.20233 5.43044 4.12244 5.28105C4.04255 5.13167 4 4.95272 4 4.72878V4.68788C4 4.46395 4.04255 4.285 4.12244 4.13561C4.20233 3.98623 4.31956 3.86899 4.46895 3.7891C4.61833 3.70921 4.79728 3.66667 5.02122 3.66667ZM6.08333 7H17.75L16.4643 18.9016C16.3444 20.0114 16.1963 20.4035 15.9496 20.7954C15.7029 21.1873 15.3675 21.4885 14.9514 21.6916C14.5352 21.8948 14.1295 22 13.0132 22H10.8201C9.70384 22 9.29811 21.8948 8.88198 21.6916C8.46584 21.4885 8.13041 21.1873 7.88373 20.7954C7.63704 20.4035 7.48889 20.0114 7.369 18.9016L6.08333 7Z" fill="#141414"/>
<mask id="mask0_126_3404" style="mask-type:luminance" maskUnits="userSpaceOnUse" x="4" y="2" width="16" height="20">
<path fill-rule="evenodd" clip-rule="evenodd" d="M9.41667 2H14.4167L14.9705 3.10765C15.1418 3.45025 15.492 3.66667 15.875 3.66667H7.95833C8.34137 3.66667 8.69154 3.45025 8.86284 3.10765L9.41667 2ZM5.02122 3.66667H18.8121C19.0361 3.66667 19.215 3.70921 19.3644 3.7891C19.5138 3.86899 19.631 3.98623 19.7109 4.13561C19.7908 4.285 19.8333 4.46395 19.8333 4.68788V4.72878C19.8333 4.95272 19.7908 5.13167 19.7109 5.28105C19.631 5.43044 19.5138 5.54767 19.3644 5.62756C19.215 5.70745 19.0361 5.75 18.8121 5.75H5.02122C4.79728 5.75 4.61833 5.70745 4.46895 5.62756C4.31956 5.54767 4.20233 5.43044 4.12244 5.28105C4.04255 5.13167 4 4.95272 4 4.72878V4.68788C4 4.46395 4.04255 4.285 4.12244 4.13561C4.20233 3.98623 4.31956 3.86899 4.46895 3.7891C4.61833 3.70921 4.79728 3.66667 5.02122 3.66667ZM6.08333 7H17.75L16.4643 18.9016C16.3444 20.0114 16.1963 20.4035 15.9496 20.7954C15.7029 21.1873 15.3675 21.4885 14.9514 21.6916C14.5352 21.8948 14.1295 22 13.0132 22H10.8201C9.70384 22 9.29811 21.8948 8.88198 21.6916C8.46584 21.4885 8.13041 21.1873 7.88373 20.7954C7.63704 20.4035 7.48889 20.0114 7.369 18.9016L6.08333 7Z" fill="white"/>
</mask>
<g mask="url(#mask0_126_3404)">
<rect width="24" height="24" fill="#2BB157"/>
</g>
</svg>
