<svg width="24" height="24" viewBox="0 0 24 24" fill="none" xmlns="http://www.w3.org/2000/svg">
<path fill-rule="evenodd" clip-rule="evenodd" d="M16.3281 14.3082L21.6653 19.6454C22.1116 20.0917 22.1116 20.8151 21.6653 21.2614L21.2614 21.6653C20.8151 22.1116 20.0917 22.1116 19.6454 21.6653L14.3082 16.3281C13.0427 17.2004 11.5088 17.7111 9.85555 17.7111C5.51705 17.7111 2 14.194 2 9.85555C2 5.51705 5.51705 2 9.85555 2C14.194 2 17.7111 5.51705 17.7111 9.85555C17.7111 11.5088 17.2004 13.0427 16.3281 14.3082ZM9.85555 4.14242C6.70028 4.14242 4.14242 6.70028 4.14242 9.85555C4.14242 13.0108 6.70028 15.5687 9.85555 15.5687C13.0108 15.5687 15.5687 13.0108 15.5687 9.85555C15.5687 6.70028 13.0108 4.14242 9.85555 4.14242Z" fill="#141414"/>
<mask id="mask0_101_3351" style="mask-type:luminance" maskUnits="userSpaceOnUse" x="2" y="2" width="20" height="20">
<path fill-rule="evenodd" clip-rule="evenodd" d="M16.3281 14.3082L21.6653 19.6454C22.1116 20.0917 22.1116 20.8151 21.6653 21.2614L21.2614 21.6653C20.8151 22.1116 20.0917 22.1116 19.6454 21.6653L14.3082 16.3281C13.0427 17.2004 11.5088 17.7111 9.85555 17.7111C5.51705 17.7111 2 14.194 2 9.85555C2 5.51705 5.51705 2 9.85555 2C14.194 2 17.7111 5.51705 17.7111 9.85555C17.7111 11.5088 17.2004 13.0427 16.3281 14.3082ZM9.85555 4.14242C6.70028 4.14242 4.14242 6.70028 4.14242 9.85555C4.14242 13.0108 6.70028 15.5687 9.85555 15.5687C13.0108 15.5687 15.5687 13.0108 15.5687 9.85555C15.5687 6.70028 13.0108 4.14242 9.85555 4.14242Z" fill="white"/>
</mask>
<g mask="url(#mask0_101_3351)">
<rect width="24" height="24" fill="#8E8E93"/>
</g>
</svg>
