<svg width="24" height="24" viewBox="0 0 24 24" fill="none" xmlns="http://www.w3.org/2000/svg">
<mask id="path-1-outside-1_159_5026" maskUnits="userSpaceOnUse" x="1" y="1" width="22" height="22" fill="black">
<rect fill="white" x="1" y="1" width="22" height="22"/>
<path fill-rule="evenodd" clip-rule="evenodd" d="M2 12C2 6.48599 6.48599 2 12 2C17.514 2 22 6.48599 22 12C22 17.514 17.514 22 12 22C6.48599 22 2 17.514 2 12ZM14.5438 3.45084L12.5163 4.91279V7.84148L15.7639 10.1892L18.5234 9.29569L19.3007 6.88458C18.1603 5.26067 16.4875 4.03279 14.5438 3.45084ZM9.43495 3.45051L11.4389 4.91266V7.84155L8.24492 10.1672L5.43475 9.25226L4.67071 6.90552C5.81172 5.27098 7.48242 4.03481 9.43495 3.45051ZM3.07744 12C3.07744 13.9942 3.73522 15.8376 4.84492 17.325L7.38512 17.3329L9.17495 14.8693L7.98465 11.2118L5.11232 10.2786L3.08094 11.7556C3.07872 11.8368 3.07744 11.9182 3.07744 12ZM14.8725 20.4481C13.9707 20.7556 13.0045 20.9226 12 20.9226C10.965 20.9226 9.97077 20.7448 9.04566 20.4192L8.25024 17.9749L10.0473 15.5016H13.8526L15.6696 18.0026L14.8725 20.4481ZM14.7941 14.9644L16.5492 17.3802L19.1098 17.3844C20.2467 15.8869 20.9226 14.0209 20.9226 11.9999C20.9226 11.9399 20.9215 11.8803 20.9203 11.8207L18.8593 10.3203L16.003 11.2484L14.7941 14.9644Z"/>
</mask>
<path fill-rule="evenodd" clip-rule="evenodd" d="M2 12C2 6.48599 6.48599 2 12 2C17.514 2 22 6.48599 22 12C22 17.514 17.514 22 12 22C6.48599 22 2 17.514 2 12ZM14.5438 3.45084L12.5163 4.91279V7.84148L15.7639 10.1892L18.5234 9.29569L19.3007 6.88458C18.1603 5.26067 16.4875 4.03279 14.5438 3.45084ZM9.43495 3.45051L11.4389 4.91266V7.84155L8.24492 10.1672L5.43475 9.25226L4.67071 6.90552C5.81172 5.27098 7.48242 4.03481 9.43495 3.45051ZM3.07744 12C3.07744 13.9942 3.73522 15.8376 4.84492 17.325L7.38512 17.3329L9.17495 14.8693L7.98465 11.2118L5.11232 10.2786L3.08094 11.7556C3.07872 11.8368 3.07744 11.9182 3.07744 12ZM14.8725 20.4481C13.9707 20.7556 13.0045 20.9226 12 20.9226C10.965 20.9226 9.97077 20.7448 9.04566 20.4192L8.25024 17.9749L10.0473 15.5016H13.8526L15.6696 18.0026L14.8725 20.4481ZM14.7941 14.9644L16.5492 17.3802L19.1098 17.3844C20.2467 15.8869 20.9226 14.0209 20.9226 11.9999C20.9226 11.9399 20.9215 11.8803 20.9203 11.8207L18.8593 10.3203L16.003 11.2484L14.7941 14.9644Z" fill="black"/>
<path d="M12.5163 4.91279L12.2239 4.50723L12.0163 4.6569V4.91279H12.5163ZM14.5438 3.45084L14.6872 2.97185L14.4512 2.90119L14.2513 3.04528L14.5438 3.45084ZM12.5163 7.84148H12.0163V8.097L12.2234 8.24669L12.5163 7.84148ZM15.7639 10.1892L15.471 10.5944L15.6766 10.743L15.9179 10.6648L15.7639 10.1892ZM18.5234 9.29569L18.6775 9.77138L18.9208 9.69258L18.9993 9.44911L18.5234 9.29569ZM19.3007 6.88458L19.7766 7.038L19.853 6.801L19.7099 6.59723L19.3007 6.88458ZM11.4389 4.91266H11.9389V4.65854L11.7336 4.50875L11.4389 4.91266ZM9.43495 3.45051L9.72966 3.04659L9.52926 2.90037L9.2916 2.97149L9.43495 3.45051ZM11.4389 7.84155L11.7332 8.24575L11.9389 8.09598V7.84155H11.4389ZM8.24492 10.1672L8.09012 10.6426L8.33286 10.7217L8.53923 10.5714L8.24492 10.1672ZM5.43475 9.25226L4.95931 9.40705L5.03806 9.64894L5.27995 9.72769L5.43475 9.25226ZM4.67071 6.90552L4.26072 6.61932L4.11818 6.82352L4.19527 7.06031L4.67071 6.90552ZM4.84492 17.325L4.44416 17.624L4.59355 17.8242L4.84337 17.825L4.84492 17.325ZM7.38512 17.3329L7.38357 17.8329L7.63931 17.8337L7.78963 17.6267L7.38512 17.3329ZM9.17495 14.8693L9.57946 15.1632L9.72929 14.957L9.6504 14.7146L9.17495 14.8693ZM7.98465 11.2118L8.4601 11.0571L8.38131 10.8149L8.13914 10.7363L7.98465 11.2118ZM5.11232 10.2786L5.26682 9.80305L5.02443 9.7243L4.81829 9.87418L5.11232 10.2786ZM3.08094 11.7556L2.78691 11.3511L2.58786 11.4959L2.58113 11.7419L3.08094 11.7556ZM14.8725 20.4481L15.0338 20.9213L15.2704 20.8407L15.3478 20.603L14.8725 20.4481ZM9.04566 20.4192L8.5702 20.5739L8.64664 20.8088L8.87966 20.8908L9.04566 20.4192ZM8.25024 17.9749L7.84573 17.6811L7.6959 17.8873L7.77478 18.1297L8.25024 17.9749ZM10.0473 15.5016V15.0016H9.79251L9.64277 15.2077L10.0473 15.5016ZM13.8526 15.5016L14.2571 15.2077L14.1074 15.0016H13.8526V15.5016ZM15.6696 18.0026L16.145 18.1575L16.2241 17.915L16.0741 17.7087L15.6696 18.0026ZM16.5492 17.3802L16.1447 17.6741L16.2942 17.8798L16.5484 17.8802L16.5492 17.3802ZM14.7941 14.9644L14.3186 14.8098L14.2398 15.0521L14.3896 15.2583L14.7941 14.9644ZM19.1098 17.3844L19.1089 17.8844L19.3576 17.8849L19.508 17.6868L19.1098 17.3844ZM20.9203 11.8207L21.4202 11.8105L21.4151 11.5625L21.2146 11.4164L20.9203 11.8207ZM18.8593 10.3203L19.1536 9.91604L18.9474 9.76592L18.7048 9.84474L18.8593 10.3203ZM16.003 11.2484L15.8485 10.7728L15.6063 10.8515L15.5275 11.0937L16.003 11.2484ZM12 2V1.5C6.20985 1.5 1.5 6.20985 1.5 12H2H2.5C2.5 6.76214 6.76214 2.5 12 2.5V2ZM22 12H22.5C22.5 6.20985 17.7901 1.5 12 1.5V2V2.5C17.2379 2.5 21.5 6.76214 21.5 12H22ZM12 22V22.5C17.7901 22.5 22.5 17.7901 22.5 12H22H21.5C21.5 17.2379 17.2379 21.5 12 21.5V22ZM2 12H1.5C1.5 17.7901 6.20985 22.5 12 22.5V22V21.5C6.76214 21.5 2.5 17.2379 2.5 12H2ZM12.5163 4.91279L12.8087 5.31836L14.8362 3.8564L14.5438 3.45084L14.2513 3.04528L12.2239 4.50723L12.5163 4.91279ZM12.5163 7.84148H13.0163V4.91279H12.5163H12.0163V7.84148H12.5163ZM15.7639 10.1892L16.0568 9.78395L12.8092 7.43627L12.5163 7.84148L12.2234 8.24669L15.471 10.5944L15.7639 10.1892ZM18.5234 9.29569L18.3694 8.82L15.6099 9.71347L15.7639 10.1892L15.9179 10.6648L18.6775 9.77138L18.5234 9.29569ZM19.3007 6.88458L18.8249 6.73116L18.0476 9.14227L18.5234 9.29569L18.9993 9.44911L19.7766 7.038L19.3007 6.88458ZM14.5438 3.45084L14.4004 3.92983C16.2347 4.47905 17.8147 5.63845 18.8916 7.17193L19.3007 6.88458L19.7099 6.59723C18.506 4.8829 16.7402 3.58654 14.6872 2.97185L14.5438 3.45084ZM11.4389 4.91266L11.7336 4.50875L9.72966 3.04659L9.43495 3.45051L9.14024 3.85442L11.1441 5.31657L11.4389 4.91266ZM11.4389 7.84155H11.9389V4.91266H11.4389H10.9389V7.84155H11.4389ZM8.24492 10.1672L8.53923 10.5714L11.7332 8.24575L11.4389 7.84155L11.1445 7.43735L7.9506 9.76301L8.24492 10.1672ZM5.43475 9.25226L5.27995 9.72769L8.09012 10.6426L8.24492 10.1672L8.39971 9.69177L5.58954 8.77682L5.43475 9.25226ZM4.67071 6.90552L4.19527 7.06031L4.95931 9.40705L5.43475 9.25226L5.91018 9.09746L5.14614 6.75073L4.67071 6.90552ZM9.43495 3.45051L9.2916 2.97149C7.22839 3.58893 5.46474 4.89451 4.26072 6.61932L4.67071 6.90552L5.0807 7.19172C6.15869 5.64744 7.73646 4.4807 9.5783 3.92952L9.43495 3.45051ZM4.84492 17.325L5.24567 17.026C4.19797 15.6217 3.57744 13.8825 3.57744 12H3.07744H2.57744C2.57744 14.106 3.27247 16.0535 4.44416 17.624L4.84492 17.325ZM7.38512 17.3329L7.38667 16.8329L4.84647 16.825L4.84492 17.325L4.84337 17.825L7.38357 17.8329L7.38512 17.3329ZM9.17495 14.8693L8.77044 14.5754L6.98061 17.039L7.38512 17.3329L7.78963 17.6267L9.57946 15.1632L9.17495 14.8693ZM7.98465 11.2118L7.50919 11.3665L8.69949 15.024L9.17495 14.8693L9.6504 14.7146L8.4601 11.0571L7.98465 11.2118ZM5.11232 10.2786L4.95783 10.7541L7.83015 11.6873L7.98465 11.2118L8.13914 10.7363L5.26682 9.80305L5.11232 10.2786ZM3.08094 11.7556L3.37498 12.16L5.40636 10.683L5.11232 10.2786L4.81829 9.87418L2.78691 11.3511L3.08094 11.7556ZM3.07744 12H3.57744C3.57744 11.9234 3.57864 11.8466 3.58076 11.7692L3.08094 11.7556L2.58113 11.7419C2.5788 11.827 2.57744 11.9131 2.57744 12H3.07744ZM12 20.9226V21.4226C13.0603 21.4226 14.0809 21.2462 15.0338 20.9213L14.8725 20.4481L14.7111 19.9748C13.8605 20.2649 12.9488 20.4226 12 20.4226V20.9226ZM9.04566 20.4192L8.87966 20.8908C9.85707 21.2348 10.9074 21.4226 12 21.4226V20.9226V20.4226C11.0226 20.4226 10.0845 20.2547 9.21165 19.9475L9.04566 20.4192ZM8.25024 17.9749L7.77478 18.1297L8.5702 20.5739L9.04566 20.4192L9.52111 20.2645L8.72569 17.8202L8.25024 17.9749ZM10.0473 15.5016L9.64277 15.2077L7.84573 17.6811L8.25024 17.9749L8.65474 18.2688L10.4518 15.7955L10.0473 15.5016ZM13.8526 15.5016V15.0016H10.0473V15.5016V16.0016H13.8526V15.5016ZM15.6696 18.0026L16.0741 17.7087L14.2571 15.2077L13.8526 15.5016L13.4481 15.7955L15.2651 18.2965L15.6696 18.0026ZM14.8725 20.4481L15.3478 20.603L16.145 18.1575L15.6696 18.0026L15.1942 17.8476L14.3971 20.2931L14.8725 20.4481ZM16.5492 17.3802L16.9537 17.0863L15.1986 14.6706L14.7941 14.9644L14.3896 15.2583L16.1447 17.6741L16.5492 17.3802ZM19.1098 17.3844L19.1106 16.8844L16.5501 16.8802L16.5492 17.3802L16.5484 17.8802L19.1089 17.8844L19.1098 17.3844ZM20.9226 11.9999H20.4226C20.4226 13.9076 19.785 15.6681 18.7115 17.0821L19.1098 17.3844L19.508 17.6868C20.7084 16.1056 21.4226 14.1343 21.4226 11.9999H20.9226ZM20.9203 11.8207L20.4204 11.8308C20.4216 11.8902 20.4226 11.9454 20.4226 11.9999H20.9226H21.4226C21.4226 11.9344 21.4214 11.8704 21.4202 11.8105L20.9203 11.8207ZM18.8593 10.3203L18.565 10.7245L20.626 12.2249L20.9203 11.8207L21.2146 11.4164L19.1536 9.91604L18.8593 10.3203ZM16.003 11.2484L16.1575 11.7239L19.0138 10.7958L18.8593 10.3203L18.7048 9.84474L15.8485 10.7728L16.003 11.2484ZM14.7941 14.9644L15.2695 15.1191L16.4784 11.403L16.003 11.2484L15.5275 11.0937L14.3186 14.8098L14.7941 14.9644Z" fill="#8E8E93" mask="url(#path-1-outside-1_159_5026)"/>
<mask id="mask0_159_5026" style="mask-type:luminance" maskUnits="userSpaceOnUse" x="1" y="1" width="22" height="22">
<mask id="path-3-outside-2_159_5026" maskUnits="userSpaceOnUse" x="1" y="1" width="22" height="22" fill="black">
<rect fill="white" x="1" y="1" width="22" height="22"/>
<path fill-rule="evenodd" clip-rule="evenodd" d="M2 12C2 6.48599 6.48599 2 12 2C17.514 2 22 6.48599 22 12C22 17.514 17.514 22 12 22C6.48599 22 2 17.514 2 12ZM14.5438 3.45084L12.5163 4.91279V7.84148L15.7639 10.1892L18.5234 9.29569L19.3007 6.88458C18.1603 5.26067 16.4875 4.03279 14.5438 3.45084ZM9.43495 3.45051L11.4389 4.91266V7.84155L8.24492 10.1672L5.43475 9.25226L4.67071 6.90552C5.81172 5.27098 7.48242 4.03481 9.43495 3.45051ZM3.07744 12C3.07744 13.9942 3.73522 15.8376 4.84492 17.325L7.38512 17.3329L9.17495 14.8693L7.98465 11.2118L5.11232 10.2786L3.08094 11.7556C3.07872 11.8368 3.07744 11.9182 3.07744 12ZM14.8725 20.4481C13.9707 20.7556 13.0045 20.9226 12 20.9226C10.965 20.9226 9.97077 20.7448 9.04566 20.4192L8.25024 17.9749L10.0473 15.5016H13.8526L15.6696 18.0026L14.8725 20.4481ZM14.7941 14.9644L16.5492 17.3802L19.1098 17.3844C20.2467 15.8869 20.9226 14.0209 20.9226 11.9999C20.9226 11.9399 20.9215 11.8803 20.9203 11.8207L18.8593 10.3203L16.003 11.2484L14.7941 14.9644Z"/>
</mask>
<path fill-rule="evenodd" clip-rule="evenodd" d="M2 12C2 6.48599 6.48599 2 12 2C17.514 2 22 6.48599 22 12C22 17.514 17.514 22 12 22C6.48599 22 2 17.514 2 12ZM14.5438 3.45084L12.5163 4.91279V7.84148L15.7639 10.1892L18.5234 9.29569L19.3007 6.88458C18.1603 5.26067 16.4875 4.03279 14.5438 3.45084ZM9.43495 3.45051L11.4389 4.91266V7.84155L8.24492 10.1672L5.43475 9.25226L4.67071 6.90552C5.81172 5.27098 7.48242 4.03481 9.43495 3.45051ZM3.07744 12C3.07744 13.9942 3.73522 15.8376 4.84492 17.325L7.38512 17.3329L9.17495 14.8693L7.98465 11.2118L5.11232 10.2786L3.08094 11.7556C3.07872 11.8368 3.07744 11.9182 3.07744 12ZM14.8725 20.4481C13.9707 20.7556 13.0045 20.9226 12 20.9226C10.965 20.9226 9.97077 20.7448 9.04566 20.4192L8.25024 17.9749L10.0473 15.5016H13.8526L15.6696 18.0026L14.8725 20.4481ZM14.7941 14.9644L16.5492 17.3802L19.1098 17.3844C20.2467 15.8869 20.9226 14.0209 20.9226 11.9999C20.9226 11.9399 20.9215 11.8803 20.9203 11.8207L18.8593 10.3203L16.003 11.2484L14.7941 14.9644Z" fill="white"/>
<path d="M12.5163 4.91279L12.2239 4.50723L12.0163 4.6569V4.91279H12.5163ZM14.5438 3.45084L14.6872 2.97185L14.4512 2.90119L14.2513 3.04528L14.5438 3.45084ZM12.5163 7.84148H12.0163V8.097L12.2234 8.24669L12.5163 7.84148ZM15.7639 10.1892L15.471 10.5944L15.6766 10.743L15.9179 10.6648L15.7639 10.1892ZM18.5234 9.29569L18.6775 9.77138L18.9208 9.69258L18.9993 9.44911L18.5234 9.29569ZM19.3007 6.88458L19.7766 7.038L19.853 6.801L19.7099 6.59723L19.3007 6.88458ZM11.4389 4.91266H11.9389V4.65854L11.7336 4.50875L11.4389 4.91266ZM9.43495 3.45051L9.72966 3.04659L9.52926 2.90037L9.2916 2.97149L9.43495 3.45051ZM11.4389 7.84155L11.7332 8.24575L11.9389 8.09598V7.84155H11.4389ZM8.24492 10.1672L8.09012 10.6426L8.33286 10.7217L8.53923 10.5714L8.24492 10.1672ZM5.43475 9.25226L4.95931 9.40705L5.03806 9.64894L5.27995 9.72769L5.43475 9.25226ZM4.67071 6.90552L4.26072 6.61932L4.11818 6.82352L4.19527 7.06031L4.67071 6.90552ZM4.84492 17.325L4.44416 17.624L4.59355 17.8242L4.84337 17.825L4.84492 17.325ZM7.38512 17.3329L7.38357 17.8329L7.63931 17.8337L7.78963 17.6267L7.38512 17.3329ZM9.17495 14.8693L9.57946 15.1632L9.72929 14.957L9.6504 14.7146L9.17495 14.8693ZM7.98465 11.2118L8.4601 11.0571L8.38131 10.8149L8.13914 10.7363L7.98465 11.2118ZM5.11232 10.2786L5.26682 9.80305L5.02443 9.7243L4.81829 9.87418L5.11232 10.2786ZM3.08094 11.7556L2.78691 11.3511L2.58786 11.4959L2.58113 11.7419L3.08094 11.7556ZM14.8725 20.4481L15.0338 20.9213L15.2704 20.8407L15.3478 20.603L14.8725 20.4481ZM9.04566 20.4192L8.5702 20.5739L8.64664 20.8088L8.87966 20.8908L9.04566 20.4192ZM8.25024 17.9749L7.84573 17.6811L7.6959 17.8873L7.77478 18.1297L8.25024 17.9749ZM10.0473 15.5016V15.0016H9.79251L9.64277 15.2077L10.0473 15.5016ZM13.8526 15.5016L14.2571 15.2077L14.1074 15.0016H13.8526V15.5016ZM15.6696 18.0026L16.145 18.1575L16.2241 17.915L16.0741 17.7087L15.6696 18.0026ZM16.5492 17.3802L16.1447 17.6741L16.2942 17.8798L16.5484 17.8802L16.5492 17.3802ZM14.7941 14.9644L14.3186 14.8098L14.2398 15.0521L14.3896 15.2583L14.7941 14.9644ZM19.1098 17.3844L19.1089 17.8844L19.3576 17.8849L19.508 17.6868L19.1098 17.3844ZM20.9203 11.8207L21.4202 11.8105L21.4151 11.5625L21.2146 11.4164L20.9203 11.8207ZM18.8593 10.3203L19.1536 9.91604L18.9474 9.76592L18.7048 9.84474L18.8593 10.3203ZM16.003 11.2484L15.8485 10.7728L15.6063 10.8515L15.5275 11.0937L16.003 11.2484ZM12 2V1.5C6.20985 1.5 1.5 6.20985 1.5 12H2H2.5C2.5 6.76214 6.76214 2.5 12 2.5V2ZM22 12H22.5C22.5 6.20985 17.7901 1.5 12 1.5V2V2.5C17.2379 2.5 21.5 6.76214 21.5 12H22ZM12 22V22.5C17.7901 22.5 22.5 17.7901 22.5 12H22H21.5C21.5 17.2379 17.2379 21.5 12 21.5V22ZM2 12H1.5C1.5 17.7901 6.20985 22.5 12 22.5V22V21.5C6.76214 21.5 2.5 17.2379 2.5 12H2ZM12.5163 4.91279L12.8087 5.31836L14.8362 3.8564L14.5438 3.45084L14.2513 3.04528L12.2239 4.50723L12.5163 4.91279ZM12.5163 7.84148H13.0163V4.91279H12.5163H12.0163V7.84148H12.5163ZM15.7639 10.1892L16.0568 9.78395L12.8092 7.43627L12.5163 7.84148L12.2234 8.24669L15.471 10.5944L15.7639 10.1892ZM18.5234 9.29569L18.3694 8.82L15.6099 9.71347L15.7639 10.1892L15.9179 10.6648L18.6775 9.77138L18.5234 9.29569ZM19.3007 6.88458L18.8249 6.73116L18.0476 9.14227L18.5234 9.29569L18.9993 9.44911L19.7766 7.038L19.3007 6.88458ZM14.5438 3.45084L14.4004 3.92983C16.2347 4.47905 17.8147 5.63845 18.8916 7.17193L19.3007 6.88458L19.7099 6.59723C18.506 4.8829 16.7402 3.58654 14.6872 2.97185L14.5438 3.45084ZM11.4389 4.91266L11.7336 4.50875L9.72966 3.04659L9.43495 3.45051L9.14024 3.85442L11.1441 5.31657L11.4389 4.91266ZM11.4389 7.84155H11.9389V4.91266H11.4389H10.9389V7.84155H11.4389ZM8.24492 10.1672L8.53923 10.5714L11.7332 8.24575L11.4389 7.84155L11.1445 7.43735L7.9506 9.76301L8.24492 10.1672ZM5.43475 9.25226L5.27995 9.72769L8.09012 10.6426L8.24492 10.1672L8.39971 9.69177L5.58954 8.77682L5.43475 9.25226ZM4.67071 6.90552L4.19527 7.06031L4.95931 9.40705L5.43475 9.25226L5.91018 9.09746L5.14614 6.75073L4.67071 6.90552ZM9.43495 3.45051L9.2916 2.97149C7.22839 3.58893 5.46474 4.89451 4.26072 6.61932L4.67071 6.90552L5.0807 7.19172C6.15869 5.64744 7.73646 4.4807 9.5783 3.92952L9.43495 3.45051ZM4.84492 17.325L5.24567 17.026C4.19797 15.6217 3.57744 13.8825 3.57744 12H3.07744H2.57744C2.57744 14.106 3.27247 16.0535 4.44416 17.624L4.84492 17.325ZM7.38512 17.3329L7.38667 16.8329L4.84647 16.825L4.84492 17.325L4.84337 17.825L7.38357 17.8329L7.38512 17.3329ZM9.17495 14.8693L8.77044 14.5754L6.98061 17.039L7.38512 17.3329L7.78963 17.6267L9.57946 15.1632L9.17495 14.8693ZM7.98465 11.2118L7.50919 11.3665L8.69949 15.024L9.17495 14.8693L9.6504 14.7146L8.4601 11.0571L7.98465 11.2118ZM5.11232 10.2786L4.95783 10.7541L7.83015 11.6873L7.98465 11.2118L8.13914 10.7363L5.26682 9.80305L5.11232 10.2786ZM3.08094 11.7556L3.37498 12.16L5.40636 10.683L5.11232 10.2786L4.81829 9.87418L2.78691 11.3511L3.08094 11.7556ZM3.07744 12H3.57744C3.57744 11.9234 3.57864 11.8466 3.58076 11.7692L3.08094 11.7556L2.58113 11.7419C2.5788 11.827 2.57744 11.9131 2.57744 12H3.07744ZM12 20.9226V21.4226C13.0603 21.4226 14.0809 21.2462 15.0338 20.9213L14.8725 20.4481L14.7111 19.9748C13.8605 20.2649 12.9488 20.4226 12 20.4226V20.9226ZM9.04566 20.4192L8.87966 20.8908C9.85707 21.2348 10.9074 21.4226 12 21.4226V20.9226V20.4226C11.0226 20.4226 10.0845 20.2547 9.21165 19.9475L9.04566 20.4192ZM8.25024 17.9749L7.77478 18.1297L8.5702 20.5739L9.04566 20.4192L9.52111 20.2645L8.72569 17.8202L8.25024 17.9749ZM10.0473 15.5016L9.64277 15.2077L7.84573 17.6811L8.25024 17.9749L8.65474 18.2688L10.4518 15.7955L10.0473 15.5016ZM13.8526 15.5016V15.0016H10.0473V15.5016V16.0016H13.8526V15.5016ZM15.6696 18.0026L16.0741 17.7087L14.2571 15.2077L13.8526 15.5016L13.4481 15.7955L15.2651 18.2965L15.6696 18.0026ZM14.8725 20.4481L15.3478 20.603L16.145 18.1575L15.6696 18.0026L15.1942 17.8476L14.3971 20.2931L14.8725 20.4481ZM16.5492 17.3802L16.9537 17.0863L15.1986 14.6706L14.7941 14.9644L14.3896 15.2583L16.1447 17.6741L16.5492 17.3802ZM19.1098 17.3844L19.1106 16.8844L16.5501 16.8802L16.5492 17.3802L16.5484 17.8802L19.1089 17.8844L19.1098 17.3844ZM20.9226 11.9999H20.4226C20.4226 13.9076 19.785 15.6681 18.7115 17.0821L19.1098 17.3844L19.508 17.6868C20.7084 16.1056 21.4226 14.1343 21.4226 11.9999H20.9226ZM20.9203 11.8207L20.4204 11.8308C20.4216 11.8902 20.4226 11.9454 20.4226 11.9999H20.9226H21.4226C21.4226 11.9344 21.4214 11.8704 21.4202 11.8105L20.9203 11.8207ZM18.8593 10.3203L18.565 10.7245L20.626 12.2249L20.9203 11.8207L21.2146 11.4164L19.1536 9.91604L18.8593 10.3203ZM16.003 11.2484L16.1575 11.7239L19.0138 10.7958L18.8593 10.3203L18.7048 9.84474L15.8485 10.7728L16.003 11.2484ZM14.7941 14.9644L15.2695 15.1191L16.4784 11.403L16.003 11.2484L15.5275 11.0937L14.3186 14.8098L14.7941 14.9644Z" fill="white" mask="url(#path-3-outside-2_159_5026)"/>
</mask>
<g mask="url(#mask0_159_5026)">
<rect width="24" height="24" fill="#8E8E93"/>
</g>
</svg>
