<svg width="24" height="24" viewBox="0 0 24 24" fill="none" xmlns="http://www.w3.org/2000/svg">
<path d="M15.3613 6.14566C15.8481 5.90565 16.4285 5.9659 16.8564 6.30094L22.8594 11.007C22.8656 11.0122 22.8691 11.0184 22.875 11.0236C22.893 11.041 22.9094 11.0607 22.9238 11.0812C22.9377 11.0989 22.9496 11.118 22.96 11.1378C22.9685 11.1585 22.9754 11.1797 22.9805 11.2013C22.9883 11.2258 22.9939 11.2509 22.9961 11.2765C22.9964 11.284 23 11.2912 23 11.299V16.8429C23 17.0469 22.836 17.2128 22.6338 17.213H21.9004V17.5822C21.9004 17.7863 21.7358 17.9523 21.5332 17.9523H14.0576C13.7812 17.9539 13.5277 17.7975 13.4023 17.549L12.6562 16.0666C12.5005 15.8583 12.2567 15.7356 11.998 15.7355C11.7391 15.7355 11.4946 15.8581 11.3389 16.0666L10.5947 17.547C10.4703 17.7959 10.2169 17.9531 9.94043 17.9523H2.46484C2.26259 17.9521 2.09863 17.7861 2.09863 17.5822V17.213H1.36719C1.16458 17.213 1 17.047 1 16.8429V11.297C1.00002 11.2894 1.0038 11.2829 1.00391 11.2755C1.00626 11.2505 1.01181 11.2254 1.01953 11.2013C1.02456 11.1797 1.0315 11.1585 1.04004 11.1378C1.05045 11.1179 1.06305 11.0988 1.07715 11.0812C1.09122 11.0606 1.10709 11.041 1.125 11.0236C1.13063 11.0185 1.13378 11.0121 1.13965 11.007L7.1416 6.30094C7.56946 5.96565 8.14981 5.90558 8.63672 6.14566C9.12362 6.38574 9.43254 6.88452 9.43262 7.43082V8.51383C9.43379 9.01146 9.1187 9.45458 8.65039 9.61246C8.14514 9.78184 7.59936 9.5062 7.43066 8.99722L6.18359 10.2912C6.11953 10.3558 6.07166 10.4349 6.04297 10.5216L5.9082 10.9279H18.0908L17.9561 10.5216C17.9272 10.4347 17.8787 10.355 17.8145 10.2902L16.5381 9.00308C16.4656 9.24582 16.2976 9.44889 16.0732 9.56363C15.8491 9.67831 15.5877 9.69483 15.3506 9.61051C14.8821 9.45348 14.5659 9.01147 14.5664 8.51383V7.43082C14.5665 6.88465 14.8746 6.38581 15.3613 6.14566ZM3.5 13.0002C3.22386 13.0002 3 13.224 3 13.5002V15.5002C3 15.7763 3.22386 16.0002 3.5 16.0002H9.5C9.77614 16.0002 10 15.7763 10 15.5002V13.5002C10 13.224 9.77614 13.0002 9.5 13.0002H3.5ZM14.5 13.0002C14.2239 13.0002 14 13.224 14 13.5002V15.5002C14 15.7763 14.2239 16.0002 14.5 16.0002H20.5C20.7761 16.0002 21 15.7763 21 15.5002V13.5002C21 13.224 20.7761 13.0002 20.5 13.0002H14.5Z" fill="white"/>
<mask id="mask0_159_4517" style="mask-type:luminance" maskUnits="userSpaceOnUse" x="1" y="6" width="22" height="12">
<path d="M15.3613 6.14566C15.8481 5.90565 16.4285 5.9659 16.8564 6.30094L22.8594 11.007C22.8656 11.0122 22.8691 11.0184 22.875 11.0236C22.893 11.041 22.9094 11.0607 22.9238 11.0812C22.9377 11.0989 22.9496 11.118 22.96 11.1378C22.9685 11.1585 22.9754 11.1797 22.9805 11.2013C22.9883 11.2258 22.9939 11.2509 22.9961 11.2765C22.9964 11.284 23 11.2912 23 11.299V16.8429C23 17.0469 22.836 17.2128 22.6338 17.213H21.9004V17.5822C21.9004 17.7863 21.7358 17.9523 21.5332 17.9523H14.0576C13.7812 17.9539 13.5277 17.7975 13.4023 17.549L12.6562 16.0666C12.5005 15.8583 12.2567 15.7356 11.998 15.7355C11.7391 15.7355 11.4946 15.8581 11.3389 16.0666L10.5947 17.547C10.4703 17.7959 10.2169 17.9531 9.94043 17.9523H2.46484C2.26259 17.9521 2.09863 17.7861 2.09863 17.5822V17.213H1.36719C1.16458 17.213 1 17.047 1 16.8429V11.297C1.00002 11.2894 1.0038 11.2829 1.00391 11.2755C1.00626 11.2505 1.01181 11.2254 1.01953 11.2013C1.02456 11.1797 1.0315 11.1585 1.04004 11.1378C1.05045 11.1179 1.06305 11.0988 1.07715 11.0812C1.09122 11.0606 1.10709 11.041 1.125 11.0236C1.13063 11.0185 1.13378 11.0121 1.13965 11.007L7.1416 6.30094C7.56946 5.96565 8.14981 5.90558 8.63672 6.14566C9.12362 6.38574 9.43254 6.88452 9.43262 7.43082V8.51383C9.43379 9.01146 9.1187 9.45458 8.65039 9.61246C8.14514 9.78184 7.59936 9.5062 7.43066 8.99722L6.18359 10.2912C6.11953 10.3558 6.07166 10.4349 6.04297 10.5216L5.9082 10.9279H18.0908L17.9561 10.5216C17.9272 10.4347 17.8787 10.355 17.8145 10.2902L16.5381 9.00308C16.4656 9.24582 16.2976 9.44889 16.0732 9.56363C15.8491 9.67831 15.5877 9.69483 15.3506 9.61051C14.8821 9.45348 14.5659 9.01147 14.5664 8.51383V7.43082C14.5665 6.88465 14.8746 6.38581 15.3613 6.14566ZM3.5 13.0002C3.22386 13.0002 3 13.224 3 13.5002V15.5002C3 15.7763 3.22386 16.0002 3.5 16.0002H9.5C9.77614 16.0002 10 15.7763 10 15.5002V13.5002C10 13.224 9.77614 13.0002 9.5 13.0002H3.5ZM14.5 13.0002C14.2239 13.0002 14 13.224 14 13.5002V15.5002C14 15.7763 14.2239 16.0002 14.5 16.0002H20.5C20.7761 16.0002 21 15.7763 21 15.5002V13.5002C21 13.224 20.7761 13.0002 20.5 13.0002H14.5Z" fill="white"/>
</mask>
<g mask="url(#mask0_159_4517)">
<rect width="24" height="24" fill="#8E8E93"/>
</g>
</svg>
