<svg width="24" height="24" viewBox="0 0 24 24" fill="none" xmlns="http://www.w3.org/2000/svg">
<path d="M5.7959 21.2132C5.79571 21.6454 5.4595 21.9816 5.02734 21.9818H4.25781C3.82571 21.9816 3.48944 21.6454 3.48926 21.2132V20.6127H5.7959V21.2132ZM20.5469 20.6127V21.2132C20.5467 21.6455 20.2097 21.9818 19.7773 21.9818H19.0088C18.6033 21.9817 18.2825 21.6857 18.2441 21.2923L18.2402 21.2132V20.6127H20.5469ZM20.5469 6.22203C21.3635 6.22221 22.0361 6.89462 22.0361 7.71129V18.4017C22.0361 19.2184 21.3635 19.8918 20.5469 19.8919H3.48926C2.67255 19.8918 2 19.2185 2 18.4017V7.71129C2.00005 6.89459 2.67258 6.22216 3.48926 6.22203H20.5469ZM5.24316 8.33629C4.66663 8.33633 4.20996 8.79294 4.20996 9.36949V16.7689C4.21021 17.3452 4.66678 17.8011 5.24316 17.8011H15.1172C15.6936 17.8011 16.1501 17.3452 16.1504 16.7689V9.36949C16.1504 8.79294 15.6937 8.33632 15.1172 8.33629H5.24316ZM18.0244 12.6127C17.9043 12.6127 17.8076 12.7084 17.8076 12.8285V14.4623C17.8077 14.5823 17.9043 14.6781 18.0244 14.6781H20.1865C20.3064 14.6779 20.4023 14.5822 20.4023 14.4623V12.8285C20.4023 12.7085 20.3065 12.6128 20.1865 12.6127H18.0244ZM18.0244 9.15269C17.9043 9.15269 17.8076 9.24937 17.8076 9.36949V11.0023C17.8076 11.1224 17.9043 11.2191 18.0244 11.2191H20.1865C20.3065 11.2189 20.4023 11.1223 20.4023 11.0023V9.36949C20.4023 9.24948 20.3065 9.15287 20.1865 9.15269H18.0244ZM7.69336 2.21031C7.98162 1.97009 8.39061 2.0174 8.63086 2.2816L11.4414 5.50132H9.6875L7.62207 3.14683C7.38195 2.85869 7.42944 2.4506 7.69336 2.21031ZM14.6611 3.57945C14.9254 3.31532 15.3334 3.31523 15.5977 3.57945C15.8617 3.84367 15.8617 4.25175 15.5977 4.51597L14.6123 5.47691H12.7627L14.6611 3.57945Z" fill="black"/>
<mask id="mask0_159_5054" style="mask-type:luminance" maskUnits="userSpaceOnUse" x="2" y="2" width="21" height="20">
<path d="M5.7959 21.2132C5.79571 21.6454 5.4595 21.9816 5.02734 21.9818H4.25781C3.82571 21.9816 3.48944 21.6454 3.48926 21.2132V20.6127H5.7959V21.2132ZM20.5469 20.6127V21.2132C20.5467 21.6455 20.2097 21.9818 19.7773 21.9818H19.0088C18.6033 21.9817 18.2825 21.6857 18.2441 21.2923L18.2402 21.2132V20.6127H20.5469ZM20.5469 6.22203C21.3635 6.22221 22.0361 6.89462 22.0361 7.71129V18.4017C22.0361 19.2184 21.3635 19.8918 20.5469 19.8919H3.48926C2.67255 19.8918 2 19.2185 2 18.4017V7.71129C2.00005 6.89459 2.67258 6.22216 3.48926 6.22203H20.5469ZM5.24316 8.33629C4.66663 8.33633 4.20996 8.79294 4.20996 9.36949V16.7689C4.21021 17.3452 4.66678 17.8011 5.24316 17.8011H15.1172C15.6936 17.8011 16.1501 17.3452 16.1504 16.7689V9.36949C16.1504 8.79294 15.6937 8.33632 15.1172 8.33629H5.24316ZM18.0244 12.6127C17.9043 12.6127 17.8076 12.7084 17.8076 12.8285V14.4623C17.8077 14.5823 17.9043 14.6781 18.0244 14.6781H20.1865C20.3064 14.6779 20.4023 14.5822 20.4023 14.4623V12.8285C20.4023 12.7085 20.3065 12.6128 20.1865 12.6127H18.0244ZM18.0244 9.15269C17.9043 9.15269 17.8076 9.24937 17.8076 9.36949V11.0023C17.8076 11.1224 17.9043 11.2191 18.0244 11.2191H20.1865C20.3065 11.2189 20.4023 11.1223 20.4023 11.0023V9.36949C20.4023 9.24948 20.3065 9.15287 20.1865 9.15269H18.0244ZM7.69336 2.21031C7.98162 1.97009 8.39061 2.0174 8.63086 2.2816L11.4414 5.50132H9.6875L7.62207 3.14683C7.38195 2.85869 7.42944 2.4506 7.69336 2.21031ZM14.6611 3.57945C14.9254 3.31532 15.3334 3.31523 15.5977 3.57945C15.8617 3.84367 15.8617 4.25175 15.5977 4.51597L14.6123 5.47691H12.7627L14.6611 3.57945Z" fill="white"/>
</mask>
<g mask="url(#mask0_159_5054)">
<rect width="24" height="24" fill="#8E8E93"/>
</g>
</svg>
