<svg width="48" height="49" viewBox="0 0 48 49" fill="none" xmlns="http://www.w3.org/2000/svg">
<path fill-rule="evenodd" clip-rule="evenodd" d="M35.9656 19.8712V29.8393C35.9656 30.6098 35.1313 31.0908 34.4638 30.708L30.3117 28.3129V28.9951C30.3117 31.0466 28.6479 32.7104 26.5963 32.7104H15.7153C13.6638 32.7104 12 31.0466 12 28.9951V20.7252C12 18.6736 13.6638 17.0098 15.7153 17.0098H26.6012C28.6528 17.0098 30.3166 18.6736 30.3166 20.7252V21.4074L34.4687 19.0123C35.1313 18.6196 35.9656 19.1055 35.9656 19.8712Z" fill="#2BB157"/>
<mask id="mask0_101_814" style="mask-type:luminance" maskUnits="userSpaceOnUse" x="12" y="17" width="24" height="16">
<path fill-rule="evenodd" clip-rule="evenodd" d="M35.9656 19.8712V29.8393C35.9656 30.6098 35.1313 31.0908 34.4638 30.708L30.3117 28.3129V28.9951C30.3117 31.0466 28.6479 32.7104 26.5963 32.7104H15.7153C13.6638 32.7104 12 31.0466 12 28.9951V20.7252C12 18.6736 13.6638 17.0098 15.7153 17.0098H26.6012C28.6528 17.0098 30.3166 18.6736 30.3166 20.7252V21.4074L34.4687 19.0123C35.1313 18.6196 35.9656 19.1055 35.9656 19.8712Z" fill="white"/>
</mask>
<g mask="url(#mask0_101_814)">
<rect x="12" y="13" width="24" height="24" fill="#8E8E93"/>
</g>
</svg>
