<svg width="24" height="24" viewBox="0 0 24 24" fill="none" xmlns="http://www.w3.org/2000/svg">
<path fill-rule="evenodd" clip-rule="evenodd" d="M5.63077 9.42206C5.53403 9.37155 5.4173 9.37903 5.32773 9.44129L3.16464 10.9482C3.08591 11.003 3.03906 11.0927 3.03906 11.1886C3.03906 11.2844 3.08591 11.3743 3.16464 11.429L5.32773 12.9359C5.37778 12.9708 5.43637 12.9885 5.49527 12.9885C5.54166 12.9885 5.5882 12.9775 5.63092 12.9551C5.72751 12.9046 5.78824 12.8046 5.78824 12.6955V9.68176C5.78824 9.57266 5.72751 9.47257 5.63077 9.42206Z" fill="#FF6F00"/>
<path fill-rule="evenodd" clip-rule="evenodd" d="M20.0914 10.9482L17.9281 9.44129C17.8386 9.37903 17.722 9.37155 17.6251 9.42206C17.5284 9.47257 17.4678 9.57266 17.4678 9.68176V12.6955C17.4678 12.8046 17.5284 12.9046 17.6251 12.9551C17.6677 12.9774 17.7142 12.9885 17.7607 12.9885C17.8195 12.9885 17.8781 12.9708 17.9281 12.9359L20.0914 11.429C20.17 11.3743 20.2169 11.2844 20.2169 11.1886C20.2169 11.0927 20.17 11.003 20.0914 10.9482Z" fill="#FF6F00"/>
<path fill-rule="evenodd" clip-rule="evenodd" d="M17.0897 2H6.1662C5.63458 2 5.20215 2.43243 5.20215 2.96405V12.6955C5.20215 12.7913 5.24899 12.881 5.32758 12.9358L10.7142 16.6883C10.8149 16.7583 10.9486 16.7583 11.0492 16.6883L11.6279 16.2851L12.2065 16.6883C12.2569 16.7232 12.3155 16.7408 12.3741 16.7408C12.4325 16.7408 12.4911 16.7232 12.5415 16.6883L17.9281 12.9358C18.0067 12.881 18.0537 12.7913 18.0537 12.6955V2.96405C18.0537 2.43243 17.6213 2 17.0897 2Z" fill="#FFCA28"/>
<path fill-rule="evenodd" clip-rule="evenodd" d="M11.6279 15.9281L12.3741 16.4478L16.5889 13.5118V5.02734C16.5889 4.91733 16.5091 4.82166 16.4001 4.8064C15.8029 4.72324 15.3305 4.25067 15.2472 3.65359C15.2321 3.54465 15.1364 3.46484 15.0264 3.46484H8.22949C8.11932 3.46484 8.0238 3.54465 8.00854 3.65359C7.92538 4.25067 7.45282 4.72324 6.85574 4.8064C6.7468 4.82166 6.66699 4.91733 6.66699 5.02734V13.5118L10.8818 16.4478L11.6279 15.9281Z" fill="#FFA000"/>
<path fill-rule="evenodd" clip-rule="evenodd" d="M15.0266 3.46484V11.0619C15.0266 12.1074 14.5153 13.0867 13.6574 13.6843L10.2861 16.0327L10.882 16.4478L11.6281 15.9281L12.3743 16.4478L16.5891 13.5118V5.02734C16.5891 4.91733 16.5093 4.82166 16.4003 4.8064C15.8031 4.72324 15.3307 4.25067 15.2474 3.65359C15.2323 3.54465 15.1366 3.46484 15.0266 3.46484Z" fill="#FF6F00"/>
<path fill-rule="evenodd" clip-rule="evenodd" d="M11.9867 9.61835L12.3928 10.8685C12.4408 11.0164 12.5788 11.1166 12.7343 11.1166H14.0487C14.3966 11.1166 14.5411 11.5616 14.2597 11.766L13.1963 12.5387C13.0706 12.6301 13.0178 12.7922 13.0658 12.94L13.472 14.1902C13.5795 14.521 13.201 14.796 12.9195 14.5917L11.8561 13.8189C11.7304 13.7275 11.56 13.7275 11.4341 13.8189L10.3707 14.5917C10.0893 14.796 9.71074 14.521 9.81817 14.1902L10.2244 12.94C10.2724 12.7922 10.2198 12.6301 10.0939 12.5387L9.03051 11.766C8.74914 11.5617 8.89379 11.1166 9.24154 11.1166H10.5559C10.7116 11.1166 10.8494 11.0164 10.8974 10.8685L11.3036 9.61835C11.4112 9.2877 11.8792 9.2877 11.9867 9.61835Z" fill="#FFCA28"/>
<path fill-rule="evenodd" clip-rule="evenodd" d="M10.6778 5.4239C10.5285 5.3615 10.3569 5.43184 10.2943 5.58107L9.55914 7.33705L8.82397 5.58107C8.76156 5.43169 8.5899 5.3615 8.44067 5.4239C8.29144 5.48646 8.22109 5.65797 8.2835 5.80736L9.2889 8.20879C9.33453 8.31773 9.44119 8.38869 9.55914 8.38869C9.67724 8.38869 9.78375 8.31773 9.82937 8.20879L10.8349 5.80736C10.8973 5.65797 10.827 5.48646 10.6778 5.4239Z" fill="#FF6F00"/>
<path fill-rule="evenodd" clip-rule="evenodd" d="M12.938 5.40112H14.1024C14.5949 5.40112 14.9958 5.80197 14.9958 6.29453C14.9958 6.78708 14.5949 7.18793 14.1024 7.18793H13.231V8.09567C13.231 8.25742 13.0999 8.38864 12.938 8.38864C12.7762 8.38864 12.645 8.25742 12.645 8.09567V5.69409C12.645 5.53235 12.7762 5.40112 12.938 5.40112ZM13.231 6.60199H14.1024C14.2719 6.60199 14.4099 6.46405 14.4099 6.29453C14.4099 6.125 14.2719 5.98706 14.1024 5.98706H13.231V6.60199Z" fill="#FF6F00"/>
<path fill-rule="evenodd" clip-rule="evenodd" d="M11.6455 5.40112C11.4838 5.40112 11.3525 5.53235 11.3525 5.69409V8.09567C11.3525 8.25742 11.4838 8.38864 11.6455 8.38864C11.8073 8.38864 11.9385 8.25742 11.9385 8.09567V5.69409C11.9385 5.53235 11.8073 5.40112 11.6455 5.40112Z" fill="#FF6F00"/>
<path fill-rule="evenodd" clip-rule="evenodd" d="M20.0596 10.9289C19.9629 10.8784 19.8462 10.8859 19.7566 10.9483L12.3742 16.0908L11.7955 15.6876C11.6949 15.6176 11.5612 15.6176 11.4607 15.6876L10.8819 16.0908L3.49942 10.9483C3.41 10.8859 3.29327 10.8784 3.19638 10.9289C3.09964 10.9794 3.03906 11.0795 3.03906 11.1886V21.7071C3.03906 21.869 3.17014 22 3.33203 22H19.9241C20.0859 22 20.2171 21.869 20.2171 21.7071V11.1886C20.2171 11.0795 20.1564 10.9794 20.0596 10.9289Z" fill="#FFB300"/>
<path fill-rule="evenodd" clip-rule="evenodd" d="M20.0596 10.9289C19.9629 10.8784 19.8462 10.8859 19.7566 10.9483L18.3616 11.9199V17.3203C18.3616 19.3116 16.7474 20.9258 14.7561 20.9258H3.03906V21.7071C3.03906 21.869 3.17014 22 3.33203 22H19.9241C20.0859 22 20.2171 21.869 20.2171 21.7071V11.1886C20.2171 11.0795 20.1564 10.9794 20.0596 10.9289Z" fill="#FF8F00"/>
<path fill-rule="evenodd" clip-rule="evenodd" d="M19.9242 21.9999H3.33206C3.20404 21.9999 3.09082 21.9168 3.05252 21.7947C3.01422 21.6726 3.05954 21.5397 3.16467 21.4667L11.4606 15.6875C11.5613 15.6175 11.6949 15.6175 11.7955 15.6875L20.0916 21.4667C20.1965 21.5397 20.242 21.6726 20.2036 21.7947C20.1653 21.9168 20.052 21.9999 19.9242 21.9999Z" fill="#FFCA28"/>
<path fill-rule="evenodd" clip-rule="evenodd" d="M19.975 21.9953C19.9888 21.9929 20.0022 21.9897 20.0152 21.9855C20.0167 21.9849 20.0181 21.9843 20.0196 21.9839C20.0321 21.9796 20.0441 21.9744 20.0559 21.9686C20.0573 21.9678 20.0588 21.9672 20.0602 21.9665C20.0722 21.9602 20.0837 21.9529 20.0947 21.9451C20.0968 21.9436 20.0989 21.9419 20.1009 21.9404C20.1117 21.9321 20.1223 21.9233 20.1319 21.9137C20.1323 21.9132 20.1328 21.9128 20.1331 21.9123C20.1424 21.9028 20.151 21.8926 20.1589 21.8819C20.1604 21.8799 20.1619 21.878 20.1635 21.8758C20.1713 21.8647 20.1784 21.8531 20.1847 21.8409C20.1856 21.8391 20.1865 21.8371 20.1874 21.8351C20.1937 21.8221 20.1993 21.8088 20.2038 21.7948C20.208 21.7809 20.2111 21.7669 20.2132 21.753C20.2137 21.7502 20.2141 21.7477 20.2144 21.7451C20.2285 21.6379 20.1825 21.5299 20.0918 21.4666L17.4988 19.6604C16.8377 20.4348 15.8544 20.9258 14.7564 20.9258H3.94124L3.16487 21.4667C3.07393 21.5301 3.028 21.6379 3.04204 21.7451C3.04235 21.7477 3.0428 21.7504 3.04326 21.753C3.0454 21.767 3.04845 21.7811 3.05272 21.7948C3.05715 21.8088 3.06279 21.8223 3.06905 21.8352C3.06996 21.8371 3.07088 21.8391 3.07179 21.8409C3.07805 21.8531 3.08522 21.8648 3.09316 21.8758C3.09453 21.878 3.09606 21.8799 3.09758 21.8819C3.10552 21.8926 3.11406 21.9028 3.12337 21.9123C3.12383 21.9128 3.12413 21.9132 3.12459 21.9137C3.1342 21.9233 3.14473 21.9321 3.15557 21.9404C3.1577 21.9419 3.15969 21.9436 3.16182 21.9451C3.17281 21.9529 3.18425 21.9602 3.19631 21.9665C3.19768 21.9672 3.19921 21.9678 3.20058 21.9686C3.21233 21.9744 3.22454 21.9796 3.23689 21.9839C3.23842 21.9843 3.23979 21.9849 3.24132 21.9855C3.25429 21.9897 3.26772 21.9929 3.28145 21.9953C3.2842 21.9958 3.28694 21.9962 3.28969 21.9965C3.30358 21.9987 3.31777 22 3.33211 22H19.9242C19.9386 22 19.9527 21.9987 19.9668 21.9965C19.9695 21.9962 19.9723 21.9958 19.975 21.9953Z" fill="#FFB300"/>
</svg>
